<svg width="569" height="96" viewBox="0 0 569 96" fill="none" xmlns="http://www.w3.org/2000/svg">
<path d="M30.5391 18.5469L30.3281 18.6406C29.1094 17.5156 27.6406 16.6172 25.9219 15.9453C24.2188 15.2734 22.3438 14.9375 20.2969 14.9375C18.3281 14.9375 16.5234 15.25 14.8828 15.875C13.2422 16.4844 11.8281 17.375 10.6406 18.5469C9.46875 19.7188 8.55469 21.1562 7.89844 22.8594C7.24219 24.5625 6.91406 26.5 6.91406 28.6719C6.91406 31.0625 7.22656 33.2969 7.85156 35.375C8.47656 37.4375 9.40625 39.2266 10.6406 40.7422C11.875 42.2578 13.4141 43.4531 15.2578 44.3281C17.1172 45.1875 19.2812 45.6172 21.75 45.6172C22.6406 45.6172 23.5312 45.5234 24.4219 45.3359C25.3125 45.1484 26.1641 44.875 26.9766 44.5156C27.8047 44.1406 28.5781 43.6953 29.2969 43.1797C30.0312 42.6484 30.6953 42.0469 31.2891 41.375L31.5469 41.5391L29.6719 46.3203C28.5 46.7734 27.2031 47.1172 25.7812 47.3516C24.375 47.6016 22.9531 47.7266 21.5156 47.7266C18.625 47.7266 15.9766 47.3125 13.5703 46.4844C11.1797 45.6406 9.11719 44.4531 7.38281 42.9219C5.66406 41.3906 4.32031 39.5547 3.35156 37.4141C2.39844 35.2578 1.92188 32.8672 1.92188 30.2422C1.92188 28.7578 2.10938 27.2969 2.48438 25.8594C2.875 24.4219 3.4375 23.0547 4.17188 21.7578C4.90625 20.4609 5.8125 19.2734 6.89062 18.1953C7.96875 17.1016 9.19531 16.1562 10.5703 15.3594C11.9609 14.5625 13.4844 13.9453 15.1406 13.5078C16.8125 13.0547 18.6172 12.8281 20.5547 12.8281C23.5703 12.8281 26.3672 13.2891 28.9453 14.2109L30.5391 18.5469ZM49.8516 18.7344H49.3359C49.2109 18.375 49.0078 17.9688 48.7266 17.5156C48.4609 17.0625 48.1016 16.6406 47.6484 16.25C47.2109 15.8438 46.6719 15.5078 46.0312 15.2422C45.4062 14.9766 44.6641 14.8438 43.8047 14.8438C43.0391 14.8438 42.3594 14.9609 41.7656 15.1953C41.1719 15.4297 40.6719 15.7578 40.2656 16.1797C39.875 16.6016 39.5781 17.1016 39.375 17.6797C39.1719 18.2578 39.0703 18.8984 39.0703 19.6016C39.0703 20.7266 39.3828 21.8047 40.0078 22.8359C40.6484 23.8516 41.4453 24.8594 42.3984 25.8594C43.3516 26.8594 44.3828 27.8594 45.4922 28.8594C46.6016 29.8594 47.6328 30.8984 48.5859 31.9766C49.5391 33.0547 50.3281 34.1875 50.9531 35.375C51.5938 36.5469 51.9141 37.8125 51.9141 39.1719C51.9141 40.1875 51.7344 41.2109 51.375 42.2422C51.0312 43.2578 50.4922 44.1719 49.7578 44.9844C49.0234 45.7969 48.0781 46.4609 46.9219 46.9766C45.7656 47.4766 44.3906 47.7266 42.7969 47.7266C41.9062 47.7266 41.0547 47.6406 40.2422 47.4688C39.4453 47.3125 38.7031 47.1172 38.0156 46.8828C37.3438 46.6328 36.7344 46.3672 36.1875 46.0859C35.6562 45.8047 35.2188 45.5469 34.875 45.3125L35.4141 40.1328H36C36.1719 40.8672 36.4531 41.5703 36.8438 42.2422C37.2344 42.8984 37.7109 43.4844 38.2734 44C38.8516 44.5 39.5078 44.9062 40.2422 45.2188C40.9766 45.5156 41.7812 45.6641 42.6562 45.6641C43.4531 45.6641 44.1641 45.5469 44.7891 45.3125C45.4297 45.0625 45.9766 44.7266 46.4297 44.3047C46.8828 43.8672 47.2266 43.3516 47.4609 42.7578C47.7109 42.1641 47.8359 41.5156 47.8359 40.8125C47.8359 39.8281 47.6562 38.9219 47.2969 38.0938C46.9375 37.25 46.4609 36.4531 45.8672 35.7031C45.2891 34.9531 44.625 34.2266 43.875 33.5234C43.1406 32.8203 42.3828 32.1172 41.6016 31.4141C40.8203 30.6953 40.0547 29.9609 39.3047 29.2109C38.5703 28.4609 37.9062 27.6641 37.3125 26.8203C36.7344 25.9609 36.2656 25.0469 35.9062 24.0781C35.5469 23.0938 35.3672 22.0156 35.3672 20.8438C35.3672 19.6094 35.6016 18.5 36.0703 17.5156C36.5547 16.5156 37.1875 15.6641 37.9688 14.9609C38.7656 14.2578 39.6641 13.7188 40.6641 13.3438C41.6641 12.9688 42.6953 12.7812 43.7578 12.7812C44.5391 12.7812 45.2578 12.8438 45.9141 12.9688C46.5703 13.0937 47.1562 13.2422 47.6719 13.4141C48.2031 13.5859 48.6641 13.7578 49.0547 13.9297C49.4453 14.1016 49.7656 14.2422 50.0156 14.3516L49.8516 18.7344ZM69.7852 13.3906L93.9258 39.0781V22.5781C93.9258 21.25 93.9102 20.0938 93.8789 19.1094C93.8477 18.1094 93.8008 17.25 93.7383 16.5312C93.6758 15.7969 93.5977 15.1875 93.5039 14.7031C93.4258 14.2187 93.3398 13.8125 93.2461 13.4844V13.3906H97.418V13.4844C97.3242 13.8125 97.2383 14.2187 97.1602 14.7031C97.082 15.1875 97.0117 15.7969 96.9492 16.5312C96.8867 17.25 96.8398 18.1094 96.8086 19.1094C96.7773 20.0938 96.7617 21.25 96.7617 22.5781V47.4688H95.9414L71.8008 21.8047V37.8359C71.8008 39.1641 71.8164 40.3281 71.8477 41.3281C71.8789 42.3125 71.9258 43.1641 71.9883 43.8828C72.0508 44.6016 72.1211 45.2031 72.1992 45.6875C72.2773 46.1719 72.3633 46.5781 72.457 46.9062V47H68.2852V46.9062C68.3789 46.5781 68.4648 46.1719 68.543 45.6875C68.6367 45.2031 68.7148 44.6016 68.7773 43.8828C68.8398 43.1641 68.8867 42.3125 68.918 41.3281C68.9492 40.3281 68.9648 39.1641 68.9648 37.8359V22.5781C68.9648 21.25 68.9492 20.0938 68.918 19.1094C68.8867 18.1094 68.8398 17.25 68.7773 16.5312C68.7148 15.7969 68.6367 15.1875 68.543 14.7031C68.4648 14.2187 68.3789 13.8125 68.2852 13.4844V13.3906H69.7852ZM121.154 28.6836C121.154 27.6875 121.143 26.8203 121.119 26.082C121.096 25.332 121.061 24.6875 121.014 24.1484C120.967 23.5977 120.914 23.1406 120.855 22.7773C120.797 22.4141 120.732 22.1094 120.662 21.8633V21.793H123.791V21.8633C123.721 22.1094 123.65 22.4141 123.58 22.7773C123.521 23.1406 123.469 23.5977 123.422 24.1484C123.387 24.6875 123.352 25.332 123.316 26.082C123.293 26.8203 123.281 27.6875 123.281 28.6836V38.1758C123.281 39.8516 123.041 41.2812 122.561 42.4648C122.08 43.6484 121.412 44.6211 120.557 45.3828C119.701 46.1328 118.676 46.6777 117.48 47.0176C116.285 47.3691 114.979 47.5449 113.561 47.5449C112.143 47.5449 110.818 47.3809 109.588 47.0527C108.369 46.7246 107.303 46.1973 106.389 45.4707C105.486 44.7324 104.777 43.7832 104.262 42.623C103.746 41.4512 103.488 40.0273 103.488 38.3516V28.6836C103.488 27.6875 103.477 26.8203 103.453 26.082C103.43 25.332 103.395 24.6875 103.348 24.1484C103.301 23.5977 103.242 23.1406 103.172 22.7773C103.113 22.4141 103.049 22.1094 102.979 21.8633V21.793H107.197V21.8633C107.127 22.1094 107.057 22.4141 106.986 22.7773C106.928 23.1406 106.875 23.5977 106.828 24.1484C106.781 24.6875 106.746 25.332 106.723 26.082C106.699 26.8203 106.688 27.6875 106.688 28.6836V38.5449C106.688 39.9395 106.893 41.0938 107.303 42.0078C107.725 42.9102 108.275 43.6309 108.955 44.1699C109.635 44.6973 110.408 45.0664 111.275 45.2773C112.143 45.4883 113.027 45.5938 113.93 45.5938C114.832 45.5938 115.717 45.4883 116.584 45.2773C117.451 45.0664 118.219 44.6973 118.887 44.1699C119.566 43.6309 120.111 42.9102 120.521 42.0078C120.943 41.0938 121.154 39.9395 121.154 38.5449V28.6836ZM132.387 35.8379C133.535 36.0488 134.584 36.0723 135.533 35.9082C136.494 35.7324 137.314 35.3691 137.994 34.8184C138.686 34.2559 139.219 33.5 139.594 32.5508C139.98 31.6016 140.174 30.4414 140.174 29.0703C140.174 28.1211 140.074 27.2598 139.875 26.4863C139.676 25.7012 139.377 25.0391 138.979 24.5C138.592 23.9492 138.1 23.5273 137.502 23.2344C136.904 22.9297 136.207 22.7773 135.41 22.7773C134.906 22.7773 134.467 22.8008 134.092 22.8477C133.717 22.8828 133.4 22.9238 133.143 22.9707C132.838 23.0293 132.586 23.0938 132.387 23.1641V35.8379ZM128.678 21.793C128.912 21.8164 129.158 21.8398 129.416 21.8633C129.639 21.8867 129.885 21.9043 130.154 21.916C130.436 21.916 130.723 21.916 131.016 21.916C131.473 21.916 132.088 21.8633 132.861 21.7578C133.646 21.6406 134.643 21.582 135.85 21.582C136.975 21.582 138.012 21.7461 138.961 22.0742C139.922 22.4023 140.754 22.8828 141.457 23.5156C142.16 24.1484 142.705 24.9219 143.092 25.8359C143.49 26.7383 143.689 27.7695 143.689 28.9297C143.689 30.4883 143.379 31.8359 142.758 32.9727C142.137 34.1094 141.305 35.0293 140.262 35.7324C139.219 36.4355 138.018 36.916 136.658 37.1738C135.299 37.4199 133.875 37.4316 132.387 37.209V40.127C132.387 41.123 132.398 41.9961 132.422 42.7461C132.457 43.4844 132.492 44.123 132.527 44.6621C132.574 45.2012 132.627 45.6523 132.686 46.0156C132.756 46.3789 132.826 46.6836 132.896 46.9297V47H128.678V46.9297C128.748 46.6836 128.812 46.3789 128.871 46.0156C128.941 45.6523 129 45.2012 129.047 44.6621C129.094 44.123 129.129 43.4844 129.152 42.7461C129.176 41.9961 129.188 41.123 129.188 40.127V28.6836C129.188 27.6875 129.176 26.8203 129.152 26.082C129.129 25.332 129.094 24.6875 129.047 24.1484C129 23.5977 128.941 23.1406 128.871 22.7773C128.812 22.4141 128.748 22.1094 128.678 21.8633V21.793ZM165.17 28.6836C165.17 27.6875 165.158 26.8203 165.135 26.082C165.111 25.332 165.076 24.6875 165.029 24.1484C164.982 23.5977 164.93 23.1406 164.871 22.7773C164.812 22.4141 164.748 22.1094 164.678 21.8633V21.793H167.807V21.8633C167.736 22.1094 167.666 22.4141 167.596 22.7773C167.537 23.1406 167.484 23.5977 167.438 24.1484C167.402 24.6875 167.367 25.332 167.332 26.082C167.309 26.8203 167.297 27.6875 167.297 28.6836V38.1758C167.297 39.8516 167.057 41.2812 166.576 42.4648C166.096 43.6484 165.428 44.6211 164.572 45.3828C163.717 46.1328 162.691 46.6777 161.496 47.0176C160.301 47.3691 158.994 47.5449 157.576 47.5449C156.158 47.5449 154.834 47.3809 153.604 47.0527C152.385 46.7246 151.318 46.1973 150.404 45.4707C149.502 44.7324 148.793 43.7832 148.277 42.623C147.762 41.4512 147.504 40.0273 147.504 38.3516V28.6836C147.504 27.6875 147.492 26.8203 147.469 26.082C147.445 25.332 147.41 24.6875 147.363 24.1484C147.316 23.5977 147.258 23.1406 147.188 22.7773C147.129 22.4141 147.064 22.1094 146.994 21.8633V21.793H151.213V21.8633C151.143 22.1094 151.072 22.4141 151.002 22.7773C150.943 23.1406 150.891 23.5977 150.844 24.1484C150.797 24.6875 150.762 25.332 150.738 26.082C150.715 26.8203 150.703 27.6875 150.703 28.6836V38.5449C150.703 39.9395 150.908 41.0938 151.318 42.0078C151.74 42.9102 152.291 43.6309 152.971 44.1699C153.65 44.6973 154.424 45.0664 155.291 45.2773C156.158 45.4883 157.043 45.5938 157.945 45.5938C158.848 45.5938 159.732 45.4883 160.6 45.2773C161.467 45.0664 162.234 44.6973 162.902 44.1699C163.582 43.6309 164.127 42.9102 164.537 42.0078C164.959 41.0938 165.17 39.9395 165.17 38.5449V28.6836ZM176.402 40.127C176.402 41.123 176.414 41.9961 176.438 42.7461C176.473 43.4844 176.508 44.123 176.543 44.6621C176.59 45.2012 176.643 45.6523 176.701 46.0156C176.771 46.3789 176.842 46.6836 176.912 46.9297V47H172.693V46.9297C172.764 46.6836 172.828 46.3789 172.887 46.0156C172.957 45.6523 173.016 45.2012 173.062 44.6621C173.109 44.123 173.145 43.4844 173.168 42.7461C173.191 41.9961 173.203 41.123 173.203 40.127V28.6836C173.203 27.6875 173.191 26.8203 173.168 26.082C173.145 25.332 173.109 24.6875 173.062 24.1484C173.016 23.5977 172.957 23.1406 172.887 22.7773C172.828 22.4141 172.764 22.1094 172.693 21.8633V21.793C172.928 21.8164 173.174 21.8398 173.432 21.8633C173.654 21.8867 173.9 21.9043 174.17 21.916C174.451 21.916 174.738 21.916 175.031 21.916C175.488 21.916 176.104 21.8633 176.877 21.7578C177.662 21.6406 178.658 21.582 179.865 21.582C180.99 21.582 182.027 21.7344 182.977 22.0391C183.938 22.3438 184.77 22.7891 185.473 23.375C186.176 23.9609 186.721 24.6816 187.107 25.5371C187.506 26.3809 187.705 27.3418 187.705 28.4199C187.705 29.2637 187.594 30.0488 187.371 30.7754C187.16 31.4902 186.855 32.1406 186.457 32.7266C186.07 33.3125 185.602 33.834 185.051 34.291C184.5 34.7363 183.885 35.1113 183.205 35.416L189.375 44.082C189.68 44.5156 189.961 44.8906 190.219 45.207C190.488 45.5234 190.74 45.793 190.975 46.0156C191.221 46.2383 191.455 46.4258 191.678 46.5781C191.9 46.7188 192.129 46.8359 192.363 46.9297V47H187.283C187.248 46.7773 187.131 46.4844 186.932 46.1211C186.744 45.7461 186.521 45.377 186.264 45.0137L180.041 36.2422C179.467 36.3008 178.875 36.3301 178.266 36.3301C177.656 36.3301 177.035 36.2773 176.402 36.1719V40.127ZM176.402 34.8008C177.551 35.0117 178.6 35.041 179.549 34.8887C180.51 34.7363 181.33 34.4023 182.01 33.8867C182.701 33.3711 183.234 32.6738 183.609 31.7949C183.996 30.9043 184.189 29.8262 184.189 28.5605C184.189 27.6816 184.09 26.8848 183.891 26.1699C183.691 25.4551 183.393 24.8516 182.994 24.3594C182.607 23.8555 182.115 23.4688 181.518 23.1992C180.92 22.918 180.223 22.7773 179.426 22.7773C178.922 22.7773 178.482 22.8008 178.107 22.8477C177.732 22.8828 177.416 22.9238 177.158 22.9707C176.854 23.0293 176.602 23.0938 176.402 23.1641V34.8008ZM235.172 43.0625C235.172 43.2344 235.148 43.4141 235.102 43.6016C235.07 43.7891 234.984 43.9453 234.844 44.0703C234.141 44.6016 233.375 45.0938 232.547 45.5469C231.734 45.9844 230.852 46.3672 229.898 46.6953C228.945 47.0234 227.914 47.2734 226.805 47.4453C225.711 47.6328 224.531 47.7266 223.266 47.7266C220.422 47.7266 217.828 47.3125 215.484 46.4844C213.141 45.6406 211.125 44.4531 209.438 42.9219C207.766 41.3906 206.469 39.5547 205.547 37.4141C204.625 35.2578 204.164 32.8672 204.164 30.2422C204.164 28.7578 204.352 27.2969 204.727 25.8594C205.117 24.4219 205.68 23.0547 206.414 21.7578C207.148 20.4609 208.055 19.2734 209.133 18.1953C210.211 17.1016 211.438 16.1562 212.812 15.3594C214.203 14.5625 215.727 13.9453 217.383 13.5078C219.055 13.0547 220.859 12.8281 222.797 12.8281C223.547 12.8281 224.312 12.8672 225.094 12.9453C225.875 13.0078 226.648 13.1094 227.414 13.25C228.18 13.375 228.914 13.5312 229.617 13.7188C230.336 13.9062 231.016 14.1172 231.656 14.3516L233.25 18.6875L233.062 18.7812C232.453 18.2344 231.75 17.7266 230.953 17.2578C230.156 16.7891 229.305 16.3828 228.398 16.0391C227.492 15.6953 226.539 15.4297 225.539 15.2422C224.555 15.0391 223.555 14.9375 222.539 14.9375C220.57 14.9375 218.766 15.25 217.125 15.875C215.484 16.4844 214.07 17.375 212.883 18.5469C211.711 19.7188 210.797 21.1562 210.141 22.8594C209.484 24.5625 209.156 26.5 209.156 28.6719C209.156 31.0625 209.469 33.2812 210.094 35.3281C210.719 37.375 211.648 39.1484 212.883 40.6484C214.117 42.1484 215.656 43.3281 217.5 44.1875C219.359 45.0312 221.523 45.4531 223.992 45.4531C225.086 45.4531 226.062 45.3672 226.922 45.1953C227.781 45.0234 228.508 44.8125 229.102 44.5625C229.695 44.2969 230.141 44.0156 230.438 43.7188C230.75 43.4062 230.906 43.125 230.906 42.875V41.9609C230.906 40.8672 230.891 39.9219 230.859 39.125C230.828 38.3281 230.781 37.6406 230.719 37.0625C230.656 36.4688 230.586 35.9609 230.508 35.5391C230.43 35.1172 230.336 34.7266 230.227 34.3672V34.2734H235.852V34.3672C235.758 34.6953 235.664 35.0859 235.57 35.5391C235.492 35.9766 235.422 36.5 235.359 37.1094C235.297 37.7188 235.25 38.4375 235.219 39.2656C235.188 40.0781 235.172 41.0234 235.172 42.1016V43.0625ZM257.818 47V46.9297C257.842 46.8711 257.859 46.7832 257.871 46.666C257.883 46.5488 257.889 46.4434 257.889 46.3496C257.889 45.9863 257.836 45.5879 257.73 45.1543C257.637 44.709 257.449 44.1582 257.168 43.502L255.041 38.7207C254.385 38.6973 253.512 38.6855 252.422 38.6855C251.332 38.6855 250.154 38.6855 248.889 38.6855C247.963 38.6855 247.066 38.6855 246.199 38.6855C245.344 38.6855 244.57 38.6973 243.879 38.7207L241.857 43.3613C241.682 43.7949 241.494 44.2695 241.295 44.7852C241.096 45.3008 240.996 45.8223 240.996 46.3496C240.996 46.502 241.008 46.6309 241.031 46.7363C241.055 46.8301 241.078 46.8945 241.102 46.9297V47H237.516V46.9297C237.727 46.707 237.99 46.3145 238.307 45.752C238.623 45.1777 238.969 44.4629 239.344 43.6074L249.416 21.2656H250.822L260.367 42.7461C260.59 43.25 260.818 43.7422 261.053 44.2227C261.299 44.6914 261.527 45.1133 261.738 45.4883C261.949 45.8633 262.137 46.1797 262.301 46.4375C262.465 46.6953 262.576 46.8594 262.635 46.9297V47H257.818ZM246.428 37.1738C247.107 37.1738 247.805 37.1738 248.52 37.1738C249.234 37.1621 249.932 37.1562 250.611 37.1562C251.303 37.1445 251.965 37.1387 252.598 37.1387C253.23 37.127 253.805 37.1152 254.32 37.1035L249.381 25.9414L244.529 37.1738H246.428ZM268.523 40.127C268.523 41.123 268.535 41.9961 268.559 42.7461C268.594 43.4844 268.629 44.123 268.664 44.6621C268.711 45.2012 268.764 45.6523 268.822 46.0156C268.893 46.3789 268.963 46.6836 269.033 46.9297V47H264.814V46.9297C264.885 46.6836 264.949 46.3789 265.008 46.0156C265.078 45.6523 265.137 45.2012 265.184 44.6621C265.23 44.123 265.266 43.4844 265.289 42.7461C265.312 41.9961 265.324 41.123 265.324 40.127V28.6836C265.324 27.6875 265.312 26.8203 265.289 26.082C265.266 25.332 265.23 24.6875 265.184 24.1484C265.137 23.5977 265.078 23.1406 265.008 22.7773C264.949 22.4141 264.885 22.1094 264.814 21.8633V21.793C265.049 21.8164 265.295 21.8398 265.553 21.8633C265.775 21.8867 266.021 21.9043 266.291 21.916C266.572 21.916 266.859 21.916 267.152 21.916C267.609 21.916 268.225 21.8633 268.998 21.7578C269.783 21.6406 270.779 21.582 271.986 21.582C273.111 21.582 274.148 21.7344 275.098 22.0391C276.059 22.3438 276.891 22.7891 277.594 23.375C278.297 23.9609 278.842 24.6816 279.229 25.5371C279.627 26.3809 279.826 27.3418 279.826 28.4199C279.826 29.2637 279.715 30.0488 279.492 30.7754C279.281 31.4902 278.977 32.1406 278.578 32.7266C278.191 33.3125 277.723 33.834 277.172 34.291C276.621 34.7363 276.006 35.1113 275.326 35.416L281.496 44.082C281.801 44.5156 282.082 44.8906 282.34 45.207C282.609 45.5234 282.861 45.793 283.096 46.0156C283.342 46.2383 283.576 46.4258 283.799 46.5781C284.021 46.7188 284.25 46.8359 284.484 46.9297V47H279.404C279.369 46.7773 279.252 46.4844 279.053 46.1211C278.865 45.7461 278.643 45.377 278.385 45.0137L272.162 36.2422C271.588 36.3008 270.996 36.3301 270.387 36.3301C269.777 36.3301 269.156 36.2773 268.523 36.1719V40.127ZM268.523 34.8008C269.672 35.0117 270.721 35.041 271.67 34.8887C272.631 34.7363 273.451 34.4023 274.131 33.8867C274.822 33.3711 275.355 32.6738 275.73 31.7949C276.117 30.9043 276.311 29.8262 276.311 28.5605C276.311 27.6816 276.211 26.8848 276.012 26.1699C275.812 25.4551 275.514 24.8516 275.115 24.3594C274.729 23.8555 274.236 23.4688 273.639 23.1992C273.041 22.918 272.344 22.7773 271.547 22.7773C271.043 22.7773 270.604 22.8008 270.229 22.8477C269.854 22.8828 269.537 22.9238 269.279 22.9707C268.975 23.0293 268.723 23.0938 268.523 23.1641V34.8008ZM308.268 44.0469C308.268 44.1758 308.25 44.3105 308.215 44.4512C308.191 44.5918 308.127 44.709 308.021 44.8027C307.494 45.2012 306.92 45.5703 306.299 45.9102C305.689 46.2383 305.027 46.5254 304.312 46.7715C303.598 47.0176 302.824 47.2051 301.992 47.334C301.172 47.4746 300.287 47.5449 299.338 47.5449C297.205 47.5449 295.26 47.2344 293.502 46.6133C291.744 45.9805 290.232 45.0898 288.967 43.9414C287.713 42.793 286.74 41.416 286.049 39.8105C285.357 38.1934 285.012 36.4004 285.012 34.4316C285.012 33.3184 285.152 32.2227 285.434 31.1445C285.727 30.0664 286.148 29.041 286.699 28.0684C287.25 27.0957 287.93 26.2051 288.738 25.3965C289.547 24.5762 290.467 23.8672 291.498 23.2695C292.541 22.6719 293.684 22.209 294.926 21.8809C296.18 21.541 297.533 21.3711 298.986 21.3711C299.549 21.3711 300.123 21.4004 300.709 21.459C301.295 21.5059 301.875 21.582 302.449 21.6875C303.023 21.7812 303.574 21.8984 304.102 22.0391C304.641 22.1797 305.15 22.3379 305.631 22.5137L306.826 25.7656L306.686 25.8359C306.229 25.4258 305.701 25.0449 305.104 24.6934C304.506 24.3418 303.867 24.0371 303.188 23.7793C302.508 23.5215 301.793 23.3223 301.043 23.1816C300.305 23.0293 299.555 22.9531 298.793 22.9531C297.316 22.9531 295.963 23.1875 294.732 23.6562C293.502 24.1133 292.441 24.7812 291.551 25.6602C290.672 26.5391 289.986 27.6172 289.494 28.8945C289.002 30.1719 288.756 31.625 288.756 33.2539C288.756 35.0469 288.99 36.7109 289.459 38.2461C289.928 39.7812 290.625 41.1113 291.551 42.2363C292.477 43.3613 293.631 44.2461 295.014 44.8906C296.408 45.5234 298.031 45.8398 299.883 45.8398C300.703 45.8398 301.436 45.7754 302.08 45.6465C302.725 45.5176 303.27 45.3594 303.715 45.1719C304.16 44.9727 304.494 44.7617 304.717 44.5391C304.951 44.3047 305.068 44.0938 305.068 43.9062V43.2207C305.068 42.4004 305.057 41.6914 305.033 41.0938C305.01 40.4961 304.975 39.9805 304.928 39.5469C304.881 39.1016 304.828 38.7207 304.77 38.4043C304.711 38.0879 304.641 37.7949 304.559 37.5254V37.4551H308.777V37.5254C308.707 37.7715 308.637 38.0645 308.566 38.4043C308.508 38.7324 308.455 39.125 308.408 39.582C308.361 40.0391 308.326 40.5781 308.303 41.1992C308.279 41.8086 308.268 42.5176 308.268 43.3262V44.0469ZM343.652 37.5605C343.219 39.8926 342.293 41.8613 340.875 43.4668C342.07 44.6621 343.295 45.7695 344.549 46.7891C345.803 47.7969 347.033 48.6758 348.24 49.4258C349.459 50.1758 350.631 50.7617 351.756 51.1836C352.881 51.6055 353.912 51.8164 354.85 51.8164C355.225 51.8164 355.6 51.7812 355.975 51.7109V52.1152C355.834 52.1738 355.646 52.2559 355.412 52.3613C355.189 52.4668 354.908 52.5664 354.568 52.6602C354.24 52.7539 353.848 52.8359 353.391 52.9062C352.945 52.9766 352.436 53.0117 351.861 53.0117C350.947 53.0117 349.957 52.8184 348.891 52.4316C347.836 52.0566 346.74 51.5293 345.604 50.8496C344.467 50.1816 343.312 49.3848 342.141 48.459C340.98 47.5332 339.844 46.5195 338.73 45.418C337.711 46.1094 336.586 46.6426 335.355 47.0176C334.137 47.3926 332.801 47.5801 331.348 47.5801C330.035 47.5801 328.852 47.416 327.797 47.0879C326.754 46.7598 325.869 46.291 325.143 45.6816C324.416 45.0723 323.854 44.334 323.455 43.4668C323.068 42.5996 322.875 41.627 322.875 40.5488C322.875 39.5176 323.068 38.6035 323.455 37.8066C323.842 36.998 324.346 36.2715 324.967 35.627C325.6 34.9824 326.32 34.3965 327.129 33.8691C327.938 33.3418 328.764 32.832 329.607 32.3398C329.268 31.4609 329.004 30.6055 328.816 29.7734C328.629 28.9414 328.535 28.1445 328.535 27.3828C328.535 26.457 328.682 25.625 328.975 24.8867C329.279 24.1367 329.689 23.5039 330.205 22.9883C330.721 22.4727 331.324 22.0742 332.016 21.793C332.719 21.5117 333.469 21.3711 334.266 21.3711C334.852 21.3711 335.402 21.4531 335.918 21.6172C336.434 21.7812 336.879 22.0273 337.254 22.3555C337.641 22.6719 337.945 23.0703 338.168 23.5508C338.391 24.0312 338.502 24.5879 338.502 25.2207C338.502 26.0176 338.332 26.7324 337.992 27.3652C337.664 27.998 337.225 28.5781 336.674 29.1055C336.135 29.6328 335.514 30.125 334.811 30.582C334.107 31.0391 333.381 31.4844 332.631 31.918C333.006 32.7969 333.451 33.6875 333.967 34.5898C334.494 35.4922 335.068 36.3945 335.689 37.2969C336.311 38.1875 336.979 39.0664 337.693 39.9336C338.408 40.8008 339.146 41.6445 339.908 42.4648C340.471 41.7031 340.91 40.8359 341.227 39.8633C341.555 38.8906 341.719 37.8242 341.719 36.6641C341.719 35.6797 341.66 34.8594 341.543 34.2031C341.438 33.5352 341.326 32.9668 341.209 32.498V32.4277H344.373V32.498C344.291 32.7793 344.227 33.0957 344.18 33.4473C344.145 33.7871 344.104 34.168 344.057 34.5898C344.01 35 343.957 35.457 343.898 35.9609C343.84 36.4531 343.758 36.9863 343.652 37.5605ZM332.666 45.998C333.627 45.998 334.541 45.8691 335.408 45.6113C336.287 45.3535 337.09 44.9785 337.816 44.4863C337.02 43.6426 336.246 42.7754 335.496 41.8848C334.746 40.9824 334.043 40.0684 333.387 39.1426C332.73 38.2051 332.121 37.2676 331.559 36.3301C331.008 35.3809 330.527 34.4492 330.117 33.5352C329.566 33.9102 329.051 34.3027 328.57 34.7129C328.102 35.123 327.691 35.5742 327.34 36.0664C326.988 36.5586 326.707 37.0977 326.496 37.6836C326.297 38.2578 326.197 38.8906 326.197 39.582C326.197 40.4961 326.355 41.3457 326.672 42.1309C327 42.916 327.451 43.5957 328.025 44.1699C328.6 44.7441 329.279 45.1953 330.064 45.5234C330.861 45.8398 331.729 45.998 332.666 45.998ZM331.348 26.4512C331.348 27.1309 331.424 27.834 331.576 28.5605C331.729 29.2754 331.939 30.0195 332.209 30.793C332.783 30.4297 333.316 30.0547 333.809 29.668C334.312 29.2812 334.746 28.8652 335.109 28.4199C335.484 27.9629 335.777 27.4766 335.988 26.9609C336.199 26.4453 336.305 25.877 336.305 25.2559C336.305 24.9043 336.258 24.5762 336.164 24.2715C336.082 23.9551 335.953 23.6797 335.777 23.4453C335.602 23.1992 335.373 23.0117 335.092 22.8828C334.822 22.7422 334.506 22.6719 334.143 22.6719C333.205 22.6719 332.502 23.0059 332.033 23.6738C331.576 24.3418 331.348 25.2676 331.348 26.4512ZM386.18 47V46.9062C386.211 46.8281 386.234 46.7109 386.25 46.5547C386.266 46.3984 386.273 46.2578 386.273 46.1328C386.273 45.6484 386.203 45.1172 386.062 44.5391C385.938 43.9453 385.688 43.2109 385.312 42.3359L382.477 35.9609C381.602 35.9297 380.438 35.9141 378.984 35.9141C377.531 35.9141 375.961 35.9141 374.273 35.9141C373.039 35.9141 371.844 35.9141 370.688 35.9141C369.547 35.9141 368.516 35.9297 367.594 35.9609L364.898 42.1484C364.664 42.7266 364.414 43.3594 364.148 44.0469C363.883 44.7344 363.75 45.4297 363.75 46.1328C363.75 46.3359 363.766 46.5078 363.797 46.6484C363.828 46.7734 363.859 46.8594 363.891 46.9062V47H359.109V46.9062C359.391 46.6094 359.742 46.0859 360.164 45.3359C360.586 44.5703 361.047 43.6172 361.547 42.4766L374.977 12.6875H376.852L389.578 41.3281C389.875 42 390.18 42.6562 390.492 43.2969C390.82 43.9219 391.125 44.4844 391.406 44.9844C391.688 45.4844 391.938 45.9062 392.156 46.25C392.375 46.5938 392.523 46.8125 392.602 46.9062V47H386.18ZM370.992 33.8984C371.898 33.8984 372.828 33.8984 373.781 33.8984C374.734 33.8828 375.664 33.875 376.57 33.875C377.492 33.8594 378.375 33.8516 379.219 33.8516C380.062 33.8359 380.828 33.8203 381.516 33.8047L374.93 18.9219L368.461 33.8984H370.992ZM405.182 25.8008H404.795C404.701 25.5312 404.549 25.2266 404.338 24.8867C404.139 24.5469 403.869 24.2305 403.529 23.9375C403.201 23.6328 402.797 23.3809 402.316 23.1816C401.848 22.9824 401.291 22.8828 400.646 22.8828C400.072 22.8828 399.562 22.9707 399.117 23.1465C398.672 23.3223 398.297 23.5684 397.992 23.8848C397.699 24.2012 397.477 24.5762 397.324 25.0098C397.172 25.4434 397.096 25.9238 397.096 26.4512C397.096 27.2949 397.33 28.1035 397.799 28.877C398.279 29.6387 398.877 30.3945 399.592 31.1445C400.307 31.8945 401.08 32.6445 401.912 33.3945C402.744 34.1445 403.518 34.9238 404.232 35.7324C404.947 36.541 405.539 37.3906 406.008 38.2812C406.488 39.1602 406.729 40.1094 406.729 41.1289C406.729 41.8906 406.594 42.6582 406.324 43.4316C406.066 44.1934 405.662 44.8789 405.111 45.4883C404.561 46.0977 403.852 46.5957 402.984 46.9824C402.117 47.3574 401.086 47.5449 399.891 47.5449C399.223 47.5449 398.584 47.4805 397.975 47.3516C397.377 47.2344 396.82 47.0879 396.305 46.9121C395.801 46.7246 395.344 46.5254 394.934 46.3145C394.535 46.1035 394.207 45.9102 393.949 45.7344L394.354 41.8496H394.793C394.922 42.4004 395.133 42.9277 395.426 43.4316C395.719 43.9238 396.076 44.3633 396.498 44.75C396.932 45.125 397.424 45.4297 397.975 45.6641C398.525 45.8867 399.129 45.998 399.785 45.998C400.383 45.998 400.916 45.9102 401.385 45.7344C401.865 45.5469 402.275 45.2949 402.615 44.9785C402.955 44.6504 403.213 44.2637 403.389 43.8184C403.576 43.373 403.67 42.8867 403.67 42.3594C403.67 41.6211 403.535 40.9414 403.266 40.3203C402.996 39.6875 402.639 39.0898 402.193 38.5273C401.76 37.9648 401.262 37.4199 400.699 36.8926C400.148 36.3652 399.58 35.8379 398.994 35.3105C398.408 34.7715 397.834 34.2207 397.271 33.6582C396.721 33.0957 396.223 32.498 395.777 31.8652C395.344 31.2207 394.992 30.5352 394.723 29.8086C394.453 29.0703 394.318 28.2617 394.318 27.3828C394.318 26.457 394.494 25.625 394.846 24.8867C395.209 24.1367 395.684 23.498 396.27 22.9707C396.867 22.4434 397.541 22.0391 398.291 21.7578C399.041 21.4766 399.814 21.3359 400.611 21.3359C401.197 21.3359 401.736 21.3828 402.229 21.4766C402.721 21.5703 403.16 21.6816 403.547 21.8105C403.945 21.9395 404.291 22.0684 404.584 22.1973C404.877 22.3262 405.117 22.4316 405.305 22.5137L405.182 25.8008ZM421.389 25.8008H421.002C420.908 25.5312 420.756 25.2266 420.545 24.8867C420.346 24.5469 420.076 24.2305 419.736 23.9375C419.408 23.6328 419.004 23.3809 418.523 23.1816C418.055 22.9824 417.498 22.8828 416.854 22.8828C416.279 22.8828 415.77 22.9707 415.324 23.1465C414.879 23.3223 414.504 23.5684 414.199 23.8848C413.906 24.2012 413.684 24.5762 413.531 25.0098C413.379 25.4434 413.303 25.9238 413.303 26.4512C413.303 27.2949 413.537 28.1035 414.006 28.877C414.486 29.6387 415.084 30.3945 415.799 31.1445C416.514 31.8945 417.287 32.6445 418.119 33.3945C418.951 34.1445 419.725 34.9238 420.439 35.7324C421.154 36.541 421.746 37.3906 422.215 38.2812C422.695 39.1602 422.936 40.1094 422.936 41.1289C422.936 41.8906 422.801 42.6582 422.531 43.4316C422.273 44.1934 421.869 44.8789 421.318 45.4883C420.768 46.0977 420.059 46.5957 419.191 46.9824C418.324 47.3574 417.293 47.5449 416.098 47.5449C415.43 47.5449 414.791 47.4805 414.182 47.3516C413.584 47.2344 413.027 47.0879 412.512 46.9121C412.008 46.7246 411.551 46.5254 411.141 46.3145C410.742 46.1035 410.414 45.9102 410.156 45.7344L410.561 41.8496H411C411.129 42.4004 411.34 42.9277 411.633 43.4316C411.926 43.9238 412.283 44.3633 412.705 44.75C413.139 45.125 413.631 45.4297 414.182 45.6641C414.732 45.8867 415.336 45.998 415.992 45.998C416.59 45.998 417.123 45.9102 417.592 45.7344C418.072 45.5469 418.482 45.2949 418.822 44.9785C419.162 44.6504 419.42 44.2637 419.596 43.8184C419.783 43.373 419.877 42.8867 419.877 42.3594C419.877 41.6211 419.742 40.9414 419.473 40.3203C419.203 39.6875 418.846 39.0898 418.4 38.5273C417.967 37.9648 417.469 37.4199 416.906 36.8926C416.355 36.3652 415.787 35.8379 415.201 35.3105C414.615 34.7715 414.041 34.2207 413.479 33.6582C412.928 33.0957 412.43 32.498 411.984 31.8652C411.551 31.2207 411.199 30.5352 410.93 29.8086C410.66 29.0703 410.525 28.2617 410.525 27.3828C410.525 26.457 410.701 25.625 411.053 24.8867C411.416 24.1367 411.891 23.498 412.477 22.9707C413.074 22.4434 413.748 22.0391 414.498 21.7578C415.248 21.4766 416.021 21.3359 416.818 21.3359C417.404 21.3359 417.943 21.3828 418.436 21.4766C418.928 21.5703 419.367 21.6816 419.754 21.8105C420.152 21.9395 420.498 22.0684 420.791 22.1973C421.084 22.3262 421.324 22.4316 421.512 22.5137L421.389 25.8008ZM438.756 21.3711C440.713 21.3711 442.518 21.6934 444.17 22.3379C445.834 22.9707 447.27 23.8672 448.477 25.0273C449.684 26.1758 450.627 27.5586 451.307 29.1758C451.986 30.793 452.326 32.5801 452.326 34.5371C452.326 35.6504 452.197 36.7461 451.939 37.8242C451.682 38.9023 451.301 39.9219 450.797 40.8828C450.305 41.8438 449.695 42.7344 448.969 43.5547C448.242 44.3633 447.41 45.0664 446.473 45.6641C445.547 46.25 444.521 46.707 443.396 47.0352C442.271 47.375 441.059 47.5449 439.758 47.5449C437.801 47.5449 435.99 47.2344 434.326 46.6133C432.674 45.9805 431.244 45.0898 430.037 43.9414C428.83 42.793 427.887 41.416 427.207 39.8105C426.527 38.1934 426.188 36.4004 426.188 34.4316C426.188 33.3184 426.316 32.2227 426.574 31.1445C426.832 30.0664 427.207 29.041 427.699 28.0684C428.203 27.0957 428.812 26.2051 429.527 25.3965C430.254 24.5762 431.08 23.8672 432.006 23.2695C432.943 22.6719 433.975 22.209 435.1 21.8809C436.236 21.541 437.455 21.3711 438.756 21.3711ZM439.758 45.9629C441.059 45.9629 442.248 45.7285 443.326 45.2598C444.404 44.791 445.33 44.1113 446.104 43.2207C446.889 42.3301 447.498 41.2461 447.932 39.9688C448.365 38.6797 448.582 37.2207 448.582 35.5918C448.582 33.7871 448.371 32.1172 447.949 30.582C447.539 29.0352 446.924 27.6992 446.104 26.5742C445.283 25.4375 444.258 24.5527 443.027 23.9199C441.809 23.2754 440.385 22.9531 438.756 22.9531C437.455 22.9531 436.266 23.1875 435.188 23.6562C434.109 24.1133 433.178 24.7812 432.393 25.6602C431.619 26.5391 431.016 27.6172 430.582 28.8945C430.148 30.1719 429.932 31.625 429.932 33.2539C429.932 35.0469 430.137 36.7227 430.547 38.2812C430.957 39.8281 431.572 41.1699 432.393 42.3066C433.213 43.4434 434.238 44.3398 435.469 44.9961C436.699 45.6406 438.129 45.9629 439.758 45.9629ZM476.689 25.6602L476.531 25.7305C475.617 24.8867 474.516 24.2129 473.227 23.709C471.949 23.2051 470.543 22.9531 469.008 22.9531C467.531 22.9531 466.178 23.1875 464.947 23.6562C463.717 24.1133 462.656 24.7812 461.766 25.6602C460.887 26.5391 460.201 27.6172 459.709 28.8945C459.217 30.1719 458.971 31.625 458.971 33.2539C458.971 35.0469 459.205 36.7227 459.674 38.2812C460.143 39.8281 460.84 41.1699 461.766 42.3066C462.691 43.4434 463.846 44.3398 465.229 44.9961C466.623 45.6406 468.246 45.9629 470.098 45.9629C470.766 45.9629 471.434 45.8926 472.102 45.752C472.77 45.6113 473.408 45.4062 474.018 45.1367C474.639 44.8555 475.219 44.5215 475.758 44.1348C476.309 43.7363 476.807 43.2852 477.252 42.7812L477.445 42.9043L476.039 46.4902C475.16 46.8301 474.188 47.0879 473.121 47.2637C472.066 47.4512 471 47.5449 469.922 47.5449C467.754 47.5449 465.768 47.2344 463.963 46.6133C462.17 45.9805 460.623 45.0898 459.322 43.9414C458.033 42.793 457.025 41.416 456.299 39.8105C455.584 38.1934 455.227 36.4004 455.227 34.4316C455.227 33.3184 455.367 32.2227 455.648 31.1445C455.941 30.0664 456.363 29.041 456.914 28.0684C457.465 27.0957 458.145 26.2051 458.953 25.3965C459.762 24.5762 460.682 23.8672 461.713 23.2695C462.756 22.6719 463.898 22.209 465.141 21.8809C466.395 21.541 467.748 21.3711 469.201 21.3711C471.463 21.3711 473.561 21.7168 475.494 22.4082L476.689 25.6602ZM480.82 46.9297C480.891 46.6836 480.955 46.3789 481.014 46.0156C481.072 45.6523 481.125 45.2012 481.172 44.6621C481.219 44.123 481.254 43.4844 481.277 42.7461C481.301 41.9961 481.312 41.123 481.312 40.127V28.6836C481.312 27.6875 481.301 26.8203 481.277 26.082C481.254 25.332 481.219 24.6875 481.172 24.1484C481.125 23.5977 481.072 23.1406 481.014 22.7773C480.955 22.4141 480.891 22.1094 480.82 21.8633V21.793H485.021V21.8633C484.951 22.1094 484.881 22.4141 484.811 22.7773C484.752 23.1406 484.699 23.5977 484.652 24.1484C484.617 24.6875 484.582 25.332 484.547 26.082C484.523 26.8203 484.512 27.6875 484.512 28.6836V40.127C484.512 41.123 484.523 41.9961 484.547 42.7461C484.582 43.4844 484.617 44.123 484.652 44.6621C484.699 45.2012 484.752 45.6523 484.811 46.0156C484.881 46.3789 484.951 46.6836 485.021 46.9297V47H480.82V46.9297ZM507.662 47V46.9297C507.686 46.8711 507.703 46.7832 507.715 46.666C507.727 46.5488 507.732 46.4434 507.732 46.3496C507.732 45.9863 507.68 45.5879 507.574 45.1543C507.48 44.709 507.293 44.1582 507.012 43.502L504.885 38.7207C504.229 38.6973 503.355 38.6855 502.266 38.6855C501.176 38.6855 499.998 38.6855 498.732 38.6855C497.807 38.6855 496.91 38.6855 496.043 38.6855C495.188 38.6855 494.414 38.6973 493.723 38.7207L491.701 43.3613C491.525 43.7949 491.338 44.2695 491.139 44.7852C490.939 45.3008 490.84 45.8223 490.84 46.3496C490.84 46.502 490.852 46.6309 490.875 46.7363C490.898 46.8301 490.922 46.8945 490.945 46.9297V47H487.359V46.9297C487.57 46.707 487.834 46.3145 488.15 45.752C488.467 45.1777 488.812 44.4629 489.188 43.6074L499.26 21.2656H500.666L510.211 42.7461C510.434 43.25 510.662 43.7422 510.896 44.2227C511.143 44.6914 511.371 45.1133 511.582 45.4883C511.793 45.8633 511.98 46.1797 512.145 46.4375C512.309 46.6953 512.42 46.8594 512.479 46.9297V47H507.662ZM496.271 37.1738C496.951 37.1738 497.648 37.1738 498.363 37.1738C499.078 37.1621 499.775 37.1562 500.455 37.1562C501.146 37.1445 501.809 37.1387 502.441 37.1387C503.074 37.127 503.648 37.1152 504.164 37.1035L499.225 25.9414L494.373 37.1738H496.271ZM520.406 23.3398C519.023 23.3398 517.775 23.4043 516.662 23.5332C515.549 23.6504 514.588 23.7793 513.779 23.9199C512.842 24.0957 512.004 24.2891 511.266 24.5L511.775 21.6523C511.916 21.6641 512.127 21.6758 512.408 21.6875C512.689 21.6992 513 21.7109 513.34 21.7227C513.691 21.7344 514.055 21.7461 514.43 21.7578C514.816 21.7578 515.18 21.7637 515.52 21.7754C515.859 21.7754 516.158 21.7812 516.416 21.793C516.686 21.793 516.879 21.793 516.996 21.793H527.033C527.15 21.793 527.338 21.793 527.596 21.793C527.865 21.7812 528.17 21.7754 528.51 21.7754C528.85 21.7637 529.207 21.7578 529.582 21.7578C529.969 21.7461 530.332 21.7344 530.672 21.7227C531.023 21.7109 531.34 21.6992 531.621 21.6875C531.902 21.6758 532.113 21.6641 532.254 21.6523L532.764 24.5C532.014 24.2891 531.17 24.0957 530.232 23.9199C529.424 23.7793 528.463 23.6504 527.35 23.5332C526.236 23.4043 524.988 23.3398 523.605 23.3398V40.127C523.605 41.123 523.617 41.9961 523.641 42.7461C523.676 43.4844 523.711 44.123 523.746 44.6621C523.793 45.2012 523.846 45.6523 523.904 46.0156C523.975 46.3789 524.045 46.6836 524.115 46.9297V47H519.914V46.9297C519.984 46.6836 520.049 46.3789 520.107 46.0156C520.166 45.6523 520.219 45.2012 520.266 44.6621C520.312 44.123 520.348 43.4844 520.371 42.7461C520.395 41.9961 520.406 41.123 520.406 40.127V23.3398ZM535.295 21.793C536.76 21.793 538.213 21.7871 539.654 21.7754C541.107 21.7637 542.438 21.752 543.645 21.7402C544.852 21.7168 545.883 21.6875 546.738 21.6523C547.594 21.6172 548.174 21.5703 548.479 21.5117L547.617 23.8496C547.23 23.7441 546.779 23.6504 546.264 23.5684C545.818 23.498 545.273 23.4336 544.629 23.375C543.996 23.3047 543.264 23.2695 542.432 23.2695C542.15 23.2695 541.811 23.2812 541.412 23.3047C541.025 23.3164 540.65 23.334 540.287 23.3574C539.865 23.3809 539.438 23.4043 539.004 23.4277V33.0254C540.211 33.0137 541.301 32.9785 542.273 32.9199C543.246 32.8613 544.072 32.8027 544.752 32.7441C545.549 32.6738 546.252 32.5918 546.861 32.498L546.316 35.0469C545.508 34.9414 544.682 34.8418 543.838 34.748C543.111 34.666 542.32 34.5957 541.465 34.5371C540.609 34.4668 539.789 34.4316 539.004 34.4316V45.4531C540.387 45.4531 541.658 45.3945 542.818 45.2773C543.979 45.1602 544.992 45.0254 545.859 44.873C546.867 44.709 547.787 44.5156 548.619 44.293L548.109 47.1406C547.969 47.1289 547.758 47.1172 547.477 47.1055C547.195 47.0938 546.879 47.082 546.527 47.0703C546.188 47.0586 545.824 47.0469 545.438 47.0352C545.062 47.0352 544.705 47.0293 544.365 47.0176C544.025 47.0176 543.721 47.0117 543.451 47C543.193 47 543.006 47 542.889 47H535.295V46.9297C535.365 46.6836 535.43 46.3789 535.488 46.0156C535.559 45.6523 535.617 45.2012 535.664 44.6621C535.711 44.123 535.746 43.4844 535.77 42.7461C535.793 41.9961 535.805 41.123 535.805 40.127V28.6836C535.805 27.6875 535.793 26.8203 535.77 26.082C535.746 25.332 535.711 24.6875 535.664 24.1484C535.617 23.5977 535.559 23.1406 535.488 22.7773C535.43 22.4141 535.365 22.1094 535.295 21.8633V21.793ZM563.455 25.8008H563.068C562.975 25.5312 562.822 25.2266 562.611 24.8867C562.412 24.5469 562.143 24.2305 561.803 23.9375C561.475 23.6328 561.07 23.3809 560.59 23.1816C560.121 22.9824 559.564 22.8828 558.92 22.8828C558.346 22.8828 557.836 22.9707 557.391 23.1465C556.945 23.3223 556.57 23.5684 556.266 23.8848C555.973 24.2012 555.75 24.5762 555.598 25.0098C555.445 25.4434 555.369 25.9238 555.369 26.4512C555.369 27.2949 555.604 28.1035 556.072 28.877C556.553 29.6387 557.15 30.3945 557.865 31.1445C558.58 31.8945 559.354 32.6445 560.186 33.3945C561.018 34.1445 561.791 34.9238 562.506 35.7324C563.221 36.541 563.812 37.3906 564.281 38.2812C564.762 39.1602 565.002 40.1094 565.002 41.1289C565.002 41.8906 564.867 42.6582 564.598 43.4316C564.34 44.1934 563.936 44.8789 563.385 45.4883C562.834 46.0977 562.125 46.5957 561.258 46.9824C560.391 47.3574 559.359 47.5449 558.164 47.5449C557.496 47.5449 556.857 47.4805 556.248 47.3516C555.65 47.2344 555.094 47.0879 554.578 46.9121C554.074 46.7246 553.617 46.5254 553.207 46.3145C552.809 46.1035 552.48 45.9102 552.223 45.7344L552.627 41.8496H553.066C553.195 42.4004 553.406 42.9277 553.699 43.4316C553.992 43.9238 554.35 44.3633 554.771 44.75C555.205 45.125 555.697 45.4297 556.248 45.6641C556.799 45.8867 557.402 45.998 558.059 45.998C558.656 45.998 559.189 45.9102 559.658 45.7344C560.139 45.5469 560.549 45.2949 560.889 44.9785C561.229 44.6504 561.486 44.2637 561.662 43.8184C561.85 43.373 561.943 42.8867 561.943 42.3594C561.943 41.6211 561.809 40.9414 561.539 40.3203C561.27 39.6875 560.912 39.0898 560.467 38.5273C560.033 37.9648 559.535 37.4199 558.973 36.8926C558.422 36.3652 557.854 35.8379 557.268 35.3105C556.682 34.7715 556.107 34.2207 555.545 33.6582C554.994 33.0957 554.496 32.498 554.051 31.8652C553.617 31.2207 553.266 30.5352 552.996 29.8086C552.727 29.0703 552.592 28.2617 552.592 27.3828C552.592 26.457 552.768 25.625 553.119 24.8867C553.482 24.1367 553.957 23.498 554.543 22.9707C555.141 22.4434 555.814 22.0391 556.564 21.7578C557.314 21.4766 558.088 21.3359 558.885 21.3359C559.471 21.3359 560.01 21.3828 560.502 21.4766C560.994 21.5703 561.434 21.6816 561.82 21.8105C562.219 21.9395 562.564 22.0684 562.857 22.1973C563.15 22.3262 563.391 22.4316 563.578 22.5137L563.455 25.8008Z" fill="black"/>
<path d="M153.066 76.7891C153.066 76.125 153.059 75.5469 153.043 75.0547C153.027 74.5547 153.004 74.125 152.973 73.7656C152.941 73.3984 152.902 73.0938 152.855 72.8516C152.816 72.6094 152.773 72.4062 152.727 72.2422V72.1953C152.883 72.2031 153.047 72.207 153.219 72.207C153.367 72.2148 153.531 72.2188 153.711 72.2188C153.898 72.2188 154.09 72.2188 154.285 72.2188C154.566 72.2188 154.945 72.1914 155.422 72.1367C155.906 72.082 156.527 72.0547 157.285 72.0547C157.988 72.0547 158.637 72.1484 159.23 72.3359C159.824 72.5156 160.336 72.7773 160.766 73.1211C161.203 73.4648 161.543 73.8906 161.785 74.3984C162.035 74.8984 162.16 75.4688 162.16 76.1094C162.16 76.6484 162.086 77.1328 161.938 77.5625C161.789 77.9844 161.578 78.3555 161.305 78.6758C161.039 78.9883 160.715 79.2539 160.332 79.4727C159.957 79.6836 159.543 79.8516 159.09 79.9766C159.754 80.0781 160.359 80.25 160.906 80.4922C161.453 80.7266 161.922 81.0234 162.312 81.3828C162.711 81.7422 163.016 82.1641 163.227 82.6484C163.445 83.125 163.555 83.6562 163.555 84.2422C163.555 85.8906 163.012 87.1289 161.926 87.957C160.84 88.7773 159.215 89.1875 157.051 89.1875C156.816 89.1875 156.543 89.1758 156.23 89.1523C155.918 89.1367 155.598 89.1172 155.27 89.0938C154.949 89.0703 154.633 89.0469 154.32 89.0234C154.008 89.0078 153.734 89 153.5 89H152.727V88.9531C152.773 88.7891 152.816 88.5859 152.855 88.3438C152.902 88.1016 152.941 87.8008 152.973 87.4414C153.004 87.082 153.027 86.6562 153.043 86.1641C153.059 85.6641 153.066 85.082 153.066 84.418V76.7891ZM157.367 80.6914C156.836 80.6914 156.391 80.7109 156.031 80.75C155.672 80.7891 155.395 80.8281 155.199 80.8672V84.418C155.199 85.332 155.215 86.0859 155.246 86.6797C155.277 87.2734 155.32 87.7578 155.375 88.1328C155.672 88.1719 155.969 88.207 156.266 88.2383C156.562 88.2695 156.801 88.2852 156.98 88.2852C158.441 88.2852 159.508 87.9609 160.18 87.3125C160.859 86.6562 161.199 85.6523 161.199 84.3008C161.199 83.7695 161.117 83.2852 160.953 82.8477C160.797 82.4023 160.559 82.0195 160.238 81.6992C159.926 81.3789 159.527 81.1328 159.043 80.9609C158.566 80.7812 158.008 80.6914 157.367 80.6914ZM155.199 79.8125C155.418 79.8359 155.613 79.8516 155.785 79.8594C155.957 79.8594 156.141 79.8594 156.336 79.8594C156.867 79.8594 157.352 79.7852 157.789 79.6367C158.227 79.4805 158.598 79.25 158.902 78.9453C159.215 78.6406 159.457 78.2617 159.629 77.8086C159.801 77.3477 159.887 76.8125 159.887 76.2031C159.887 75.6953 159.824 75.2344 159.699 74.8203C159.574 74.4062 159.387 74.0547 159.137 73.7656C158.895 73.4688 158.594 73.2422 158.234 73.0859C157.875 72.9297 157.465 72.8516 157.004 72.8516C156.707 72.8516 156.445 72.8633 156.219 72.8867C156 72.9102 155.812 72.9375 155.656 72.9688C155.477 73 155.324 73.0391 155.199 73.0859V79.8125ZM173.598 85.0391C173.387 85.0391 173.121 85.0391 172.801 85.0391C172.488 85.0391 172.145 85.0391 171.77 85.0391C171.395 85.0391 171.008 85.0391 170.609 85.0391C170.211 85.0391 169.832 85.043 169.473 85.0508C169.113 85.0508 168.785 85.0547 168.488 85.0625C168.191 85.0625 167.961 85.0625 167.797 85.0625L167.363 85.9766C167.176 86.3516 167.016 86.6797 166.883 86.9609C166.75 87.2344 166.641 87.4766 166.555 87.6875C166.469 87.8984 166.406 88.082 166.367 88.2383C166.328 88.3867 166.309 88.5273 166.309 88.6602C166.309 88.7461 166.312 88.8125 166.32 88.8594C166.328 88.8984 166.34 88.9297 166.355 88.9531V89H164.293V88.9531C164.348 88.8984 164.434 88.7812 164.551 88.6016C164.668 88.4141 164.801 88.1875 164.949 87.9219C165.105 87.6562 165.27 87.3555 165.441 87.0195C165.621 86.6836 165.797 86.3359 165.969 85.9766L170.75 76.1094H171.629L176.316 85.9766C176.496 86.3516 176.676 86.7109 176.855 87.0547C177.043 87.3984 177.215 87.707 177.371 87.9805C177.527 88.2461 177.664 88.4688 177.781 88.6484C177.898 88.8203 177.977 88.9219 178.016 88.9531V89H175.016C175.031 88.9375 175.039 88.8828 175.039 88.8359C175.039 88.7812 175.039 88.7227 175.039 88.6602C175.039 88.4883 175 88.2812 174.922 88.0391C174.852 87.7969 174.762 87.5508 174.652 87.3008C174.551 87.043 174.441 86.7969 174.324 86.5625C174.215 86.3281 174.125 86.1328 174.055 85.9766L173.598 85.0391ZM168.254 84.125H168.969C169.297 84.125 169.645 84.125 170.012 84.125C170.387 84.1172 170.762 84.1133 171.137 84.1133C171.512 84.1133 171.875 84.1133 172.227 84.1133C172.578 84.1055 172.895 84.1016 173.176 84.1016L170.75 78.9219L168.254 84.125ZM182.012 77.2695C181.301 77.2695 180.652 77.3008 180.066 77.3633C179.488 77.4258 178.988 77.4922 178.566 77.5625C178.082 77.6484 177.645 77.7422 177.254 77.8438L177.488 76.332C177.605 76.3477 177.797 76.3594 178.062 76.3672C178.328 76.375 178.605 76.3828 178.895 76.3906C179.191 76.3906 179.469 76.3945 179.727 76.4023C179.992 76.4023 180.176 76.4023 180.277 76.4023H185.82C185.914 76.4023 186.086 76.4023 186.336 76.4023C186.594 76.3945 186.867 76.3906 187.156 76.3906C187.445 76.3828 187.723 76.375 187.988 76.3672C188.254 76.3594 188.445 76.3477 188.562 76.332L188.797 77.8438C188.422 77.7422 187.992 77.6484 187.508 77.5625C187.094 77.4922 186.594 77.4258 186.008 77.3633C185.43 77.3008 184.777 77.2695 184.051 77.2695V84.1719C184.051 84.875 184.059 85.4883 184.074 86.0117C184.09 86.5352 184.109 86.9883 184.133 87.3711C184.164 87.7461 184.199 88.0625 184.238 88.3203C184.277 88.5781 184.324 88.7891 184.379 88.9531V89H181.672V88.9531C181.727 88.7891 181.773 88.5781 181.812 88.3203C181.852 88.0625 181.887 87.7461 181.918 87.3711C181.949 86.9883 181.973 86.5352 181.988 86.0117C182.004 85.4883 182.012 84.875 182.012 84.1719V77.2695ZM199.438 82.9766C199.195 82.9766 198.895 82.9766 198.535 82.9766C198.176 82.9688 197.785 82.9609 197.363 82.9531C196.941 82.9453 196.504 82.9414 196.051 82.9414C195.598 82.9336 195.16 82.9297 194.738 82.9297C194.34 82.9297 193.965 82.9336 193.613 82.9414C193.27 82.9492 192.973 82.9609 192.723 82.9766V84.1719C192.723 84.875 192.73 85.4883 192.746 86.0117C192.762 86.5352 192.781 86.9883 192.805 87.3711C192.836 87.7461 192.871 88.0625 192.91 88.3203C192.949 88.5781 192.996 88.7891 193.051 88.9531V89H190.344V88.9531C190.398 88.7891 190.445 88.5781 190.484 88.3203C190.531 88.0625 190.566 87.7461 190.59 87.3711C190.621 86.9883 190.645 86.5352 190.66 86.0117C190.676 85.4883 190.684 84.875 190.684 84.1719V81.2188C190.684 80.5156 190.676 79.9062 190.66 79.3906C190.645 78.8672 190.621 78.418 190.59 78.043C190.566 77.6602 190.531 77.3398 190.484 77.082C190.445 76.8242 190.398 76.6133 190.344 76.4492V76.4023H193.051V76.4492C192.996 76.6133 192.949 76.8242 192.91 77.082C192.871 77.3398 192.836 77.6602 192.805 78.043C192.781 78.418 192.762 78.8672 192.746 79.3906C192.73 79.9062 192.723 80.5156 192.723 81.2188V82.0156H194.445C194.875 82.0156 195.328 82.0156 195.805 82.0156C196.281 82.0078 196.742 82.0039 197.188 82.0039C197.633 81.9961 198.051 81.9883 198.441 81.9805C198.832 81.9727 199.164 81.9609 199.438 81.9453V81.2188C199.438 80.5156 199.43 79.9062 199.414 79.3906C199.398 78.8672 199.375 78.418 199.344 78.043C199.32 77.6602 199.289 77.3398 199.25 77.082C199.211 76.8242 199.164 76.6133 199.109 76.4492V76.4023H201.816V76.4492C201.762 76.6133 201.711 76.8242 201.664 77.082C201.625 77.3398 201.59 77.6602 201.559 78.043C201.535 78.418 201.516 78.8672 201.5 79.3906C201.484 79.9062 201.477 80.5156 201.477 81.2188V84.1719C201.477 84.875 201.484 85.4883 201.5 86.0117C201.516 86.5352 201.535 86.9883 201.559 87.3711C201.59 87.7461 201.625 88.0625 201.664 88.3203C201.711 88.5781 201.762 88.7891 201.816 88.9531V89H199.109V88.9531C199.164 88.7891 199.211 88.5781 199.25 88.3203C199.289 88.0625 199.32 87.7461 199.344 87.3711C199.375 86.9883 199.398 86.5352 199.414 86.0117C199.43 85.4883 199.438 84.875 199.438 84.1719V82.9766ZM205.332 81.2188C205.332 80.5156 205.324 79.9062 205.309 79.3906C205.293 78.8672 205.27 78.418 205.238 78.043C205.215 77.6602 205.18 77.3398 205.133 77.082C205.094 76.8242 205.047 76.6133 204.992 76.4492V76.4023H207.711V76.4492C207.656 76.6133 207.605 76.8242 207.559 77.082C207.52 77.3398 207.484 77.6602 207.453 78.043C207.43 78.418 207.41 78.8672 207.395 79.3906C207.379 79.9062 207.371 80.5156 207.371 81.2188V84.1719C207.371 84.875 207.379 85.4883 207.395 86.0117C207.41 86.5352 207.43 86.9883 207.453 87.3711C207.484 87.7461 207.52 88.0625 207.559 88.3203C207.605 88.5781 207.656 88.7891 207.711 88.9531V89H204.992V88.9531C205.047 88.7891 205.094 88.5781 205.133 88.3203C205.18 88.0625 205.215 87.7461 205.238 87.3711C205.27 86.9883 205.293 86.5352 205.309 86.0117C205.324 85.4883 205.332 84.875 205.332 84.1719V81.2188ZM222.23 89.1641H221.773L212.457 80V84.1719C212.457 84.875 212.461 85.4883 212.469 86.0117C212.477 86.5352 212.488 86.9883 212.504 87.3711C212.527 87.7461 212.555 88.0625 212.586 88.3203C212.625 88.5781 212.672 88.7891 212.727 88.9531V89H210.969V88.9531C211.023 88.7891 211.07 88.5781 211.109 88.3203C211.148 88.0625 211.18 87.7461 211.203 87.3711C211.227 86.9883 211.242 86.5352 211.25 86.0117C211.258 85.4883 211.262 84.875 211.262 84.1719V81.2188C211.262 80.5156 211.258 79.9062 211.25 79.3906C211.242 78.8672 211.227 78.418 211.203 78.043C211.18 77.6602 211.148 77.3398 211.109 77.082C211.07 76.8242 211.023 76.6133 210.969 76.4492V76.4023H211.695L221.023 85.6133V81.2188C221.023 80.5156 221.02 79.9062 221.012 79.3906C221.004 78.8672 220.988 78.418 220.965 78.043C220.949 77.6602 220.926 77.3398 220.895 77.082C220.863 76.8242 220.82 76.6133 220.766 76.4492V76.4023H222.512V76.4492C222.457 76.6133 222.41 76.8242 222.371 77.082C222.34 77.3398 222.312 77.6602 222.289 78.043C222.266 78.418 222.25 78.8672 222.242 79.3906C222.234 79.9062 222.23 80.5156 222.23 81.2188V89.1641ZM228.02 77.2344C228.012 77.875 228.004 78.4961 227.996 79.0977C227.996 79.3555 227.992 79.6211 227.984 79.8945C227.984 80.1602 227.98 80.4258 227.973 80.6914C227.973 80.957 227.973 81.2109 227.973 81.4531C227.973 81.6875 227.973 81.8984 227.973 82.0859C227.973 82.4766 227.973 82.9492 227.973 83.5039C227.98 84.0508 227.988 84.6133 227.996 85.1914C228.004 85.7695 228.016 86.3281 228.031 86.8672C228.047 87.3984 228.066 87.8438 228.09 88.2031C228.168 88.2188 228.27 88.2344 228.395 88.25C228.52 88.2578 228.648 88.2695 228.781 88.2852C228.922 88.293 229.059 88.3008 229.191 88.3086C229.324 88.3086 229.438 88.3086 229.531 88.3086C229.961 88.3086 230.395 88.2812 230.832 88.2266C231.277 88.1719 231.703 88.0703 232.109 87.9219C232.523 87.7656 232.91 87.5547 233.27 87.2891C233.629 87.0234 233.941 86.6836 234.207 86.2695C234.48 85.8477 234.691 85.3438 234.84 84.7578C234.996 84.1641 235.074 83.4648 235.074 82.6602C235.074 80.8867 234.648 79.5195 233.797 78.5586C232.953 77.5977 231.691 77.1172 230.012 77.1172C229.848 77.1172 229.672 77.1211 229.484 77.1289C229.305 77.1367 229.125 77.1484 228.945 77.1641C228.766 77.1719 228.594 77.1836 228.43 77.1992C228.273 77.2148 228.137 77.2266 228.02 77.2344ZM225.594 76.3789C225.781 76.3867 225.957 76.3906 226.121 76.3906C226.262 76.3984 226.398 76.4023 226.531 76.4023C226.664 76.4023 226.762 76.4023 226.824 76.4023C226.934 76.4023 227.129 76.3984 227.41 76.3906C227.691 76.3828 228.008 76.375 228.359 76.3672C228.719 76.3516 229.094 76.3398 229.484 76.332C229.883 76.3164 230.25 76.3086 230.586 76.3086C231.5 76.3086 232.371 76.4141 233.199 76.625C234.027 76.8359 234.754 77.1836 235.379 77.668C236.012 78.1445 236.512 78.7734 236.879 79.5547C237.246 80.3281 237.43 81.2852 237.43 82.4258C237.43 83.6523 237.219 84.6914 236.797 85.543C236.375 86.3945 235.805 87.0898 235.086 87.6289C234.367 88.1602 233.531 88.5469 232.578 88.7891C231.633 89.0234 230.633 89.1406 229.578 89.1406C229.328 89.1406 229.016 89.1328 228.641 89.1172C228.266 89.1016 227.883 89.0859 227.492 89.0703C227.102 89.0547 226.73 89.0391 226.379 89.0234C226.035 89.0078 225.773 89 225.594 89V88.9531C225.648 88.7891 225.695 88.5781 225.734 88.3203C225.781 88.0625 225.816 87.7461 225.84 87.3711C225.871 86.9883 225.895 86.5352 225.91 86.0117C225.926 85.4883 225.934 84.875 225.934 84.1719V81.2188C225.934 80.5156 225.926 79.9023 225.91 79.3789C225.895 78.8555 225.871 78.4023 225.84 78.0195C225.816 77.6367 225.781 77.3164 225.734 77.0586C225.695 76.8008 225.648 76.5898 225.594 76.4258V76.3789ZM247.566 85.0391C247.355 85.0391 247.09 85.0391 246.77 85.0391C246.457 85.0391 246.113 85.0391 245.738 85.0391C245.363 85.0391 244.977 85.0391 244.578 85.0391C244.18 85.0391 243.801 85.043 243.441 85.0508C243.082 85.0508 242.754 85.0547 242.457 85.0625C242.16 85.0625 241.93 85.0625 241.766 85.0625L241.332 85.9766C241.145 86.3516 240.984 86.6797 240.852 86.9609C240.719 87.2344 240.609 87.4766 240.523 87.6875C240.438 87.8984 240.375 88.082 240.336 88.2383C240.297 88.3867 240.277 88.5273 240.277 88.6602C240.277 88.7461 240.281 88.8125 240.289 88.8594C240.297 88.8984 240.309 88.9297 240.324 88.9531V89H238.262V88.9531C238.316 88.8984 238.402 88.7812 238.52 88.6016C238.637 88.4141 238.77 88.1875 238.918 87.9219C239.074 87.6562 239.238 87.3555 239.41 87.0195C239.59 86.6836 239.766 86.3359 239.938 85.9766L244.719 76.1094H245.598L250.285 85.9766C250.465 86.3516 250.645 86.7109 250.824 87.0547C251.012 87.3984 251.184 87.707 251.34 87.9805C251.496 88.2461 251.633 88.4688 251.75 88.6484C251.867 88.8203 251.945 88.9219 251.984 88.9531V89H248.984C249 88.9375 249.008 88.8828 249.008 88.8359C249.008 88.7812 249.008 88.7227 249.008 88.6602C249.008 88.4883 248.969 88.2812 248.891 88.0391C248.82 87.7969 248.73 87.5508 248.621 87.3008C248.52 87.043 248.41 86.7969 248.293 86.5625C248.184 86.3281 248.094 86.1328 248.023 85.9766L247.566 85.0391ZM242.223 84.125H242.938C243.266 84.125 243.613 84.125 243.98 84.125C244.355 84.1172 244.73 84.1133 245.105 84.1133C245.48 84.1133 245.844 84.1133 246.195 84.1133C246.547 84.1055 246.863 84.1016 247.145 84.1016L244.719 78.9219L242.223 84.125ZM257.258 70.6602H258.5V94.6602H257.258V70.6602ZM265.895 76.7891C265.895 76.125 265.887 75.5469 265.871 75.0547C265.855 74.5547 265.832 74.125 265.801 73.7656C265.77 73.3984 265.73 73.0938 265.684 72.8516C265.645 72.6094 265.602 72.4062 265.555 72.2422V72.1953C265.711 72.2031 265.875 72.207 266.047 72.207C266.195 72.2148 266.359 72.2188 266.539 72.2188C266.727 72.2188 266.918 72.2188 267.113 72.2188C267.395 72.2188 267.773 72.1914 268.25 72.1367C268.734 72.082 269.355 72.0547 270.113 72.0547C270.816 72.0547 271.465 72.1484 272.059 72.3359C272.652 72.5156 273.164 72.7773 273.594 73.1211C274.031 73.4648 274.371 73.8906 274.613 74.3984C274.863 74.8984 274.988 75.4688 274.988 76.1094C274.988 76.6484 274.914 77.1328 274.766 77.5625C274.617 77.9844 274.406 78.3555 274.133 78.6758C273.867 78.9883 273.543 79.2539 273.16 79.4727C272.785 79.6836 272.371 79.8516 271.918 79.9766C272.582 80.0781 273.188 80.25 273.734 80.4922C274.281 80.7266 274.75 81.0234 275.141 81.3828C275.539 81.7422 275.844 82.1641 276.055 82.6484C276.273 83.125 276.383 83.6562 276.383 84.2422C276.383 85.8906 275.84 87.1289 274.754 87.957C273.668 88.7773 272.043 89.1875 269.879 89.1875C269.645 89.1875 269.371 89.1758 269.059 89.1523C268.746 89.1367 268.426 89.1172 268.098 89.0938C267.777 89.0703 267.461 89.0469 267.148 89.0234C266.836 89.0078 266.562 89 266.328 89H265.555V88.9531C265.602 88.7891 265.645 88.5859 265.684 88.3438C265.73 88.1016 265.77 87.8008 265.801 87.4414C265.832 87.082 265.855 86.6562 265.871 86.1641C265.887 85.6641 265.895 85.082 265.895 84.418V76.7891ZM270.195 80.6914C269.664 80.6914 269.219 80.7109 268.859 80.75C268.5 80.7891 268.223 80.8281 268.027 80.8672V84.418C268.027 85.332 268.043 86.0859 268.074 86.6797C268.105 87.2734 268.148 87.7578 268.203 88.1328C268.5 88.1719 268.797 88.207 269.094 88.2383C269.391 88.2695 269.629 88.2852 269.809 88.2852C271.27 88.2852 272.336 87.9609 273.008 87.3125C273.688 86.6562 274.027 85.6523 274.027 84.3008C274.027 83.7695 273.945 83.2852 273.781 82.8477C273.625 82.4023 273.387 82.0195 273.066 81.6992C272.754 81.3789 272.355 81.1328 271.871 80.9609C271.395 80.7812 270.836 80.6914 270.195 80.6914ZM268.027 79.8125C268.246 79.8359 268.441 79.8516 268.613 79.8594C268.785 79.8594 268.969 79.8594 269.164 79.8594C269.695 79.8594 270.18 79.7852 270.617 79.6367C271.055 79.4805 271.426 79.25 271.73 78.9453C272.043 78.6406 272.285 78.2617 272.457 77.8086C272.629 77.3477 272.715 76.8125 272.715 76.2031C272.715 75.6953 272.652 75.2344 272.527 74.8203C272.402 74.4062 272.215 74.0547 271.965 73.7656C271.723 73.4688 271.422 73.2422 271.062 73.0859C270.703 72.9297 270.293 72.8516 269.832 72.8516C269.535 72.8516 269.273 72.8633 269.047 72.8867C268.828 72.9102 268.641 72.9375 268.484 72.9688C268.305 73 268.152 73.0391 268.027 73.0859V79.8125ZM286.426 85.0391C286.215 85.0391 285.949 85.0391 285.629 85.0391C285.316 85.0391 284.973 85.0391 284.598 85.0391C284.223 85.0391 283.836 85.0391 283.438 85.0391C283.039 85.0391 282.66 85.043 282.301 85.0508C281.941 85.0508 281.613 85.0547 281.316 85.0625C281.02 85.0625 280.789 85.0625 280.625 85.0625L280.191 85.9766C280.004 86.3516 279.844 86.6797 279.711 86.9609C279.578 87.2344 279.469 87.4766 279.383 87.6875C279.297 87.8984 279.234 88.082 279.195 88.2383C279.156 88.3867 279.137 88.5273 279.137 88.6602C279.137 88.7461 279.141 88.8125 279.148 88.8594C279.156 88.8984 279.168 88.9297 279.184 88.9531V89H277.121V88.9531C277.176 88.8984 277.262 88.7812 277.379 88.6016C277.496 88.4141 277.629 88.1875 277.777 87.9219C277.934 87.6562 278.098 87.3555 278.27 87.0195C278.449 86.6836 278.625 86.3359 278.797 85.9766L283.578 76.1094H284.457L289.145 85.9766C289.324 86.3516 289.504 86.7109 289.684 87.0547C289.871 87.3984 290.043 87.707 290.199 87.9805C290.355 88.2461 290.492 88.4688 290.609 88.6484C290.727 88.8203 290.805 88.9219 290.844 88.9531V89H287.844C287.859 88.9375 287.867 88.8828 287.867 88.8359C287.867 88.7812 287.867 88.7227 287.867 88.6602C287.867 88.4883 287.828 88.2812 287.75 88.0391C287.68 87.7969 287.59 87.5508 287.48 87.3008C287.379 87.043 287.27 86.7969 287.152 86.5625C287.043 86.3281 286.953 86.1328 286.883 85.9766L286.426 85.0391ZM281.082 84.125H281.797C282.125 84.125 282.473 84.125 282.84 84.125C283.215 84.1172 283.59 84.1133 283.965 84.1133C284.34 84.1133 284.703 84.1133 285.055 84.1133C285.406 84.1055 285.723 84.1016 286.004 84.1016L283.578 78.9219L281.082 84.125ZM294.652 82.8828C294.809 82.9062 294.965 82.9258 295.121 82.9414C295.285 82.9492 295.441 82.9531 295.59 82.9531C296.566 82.9531 297.305 82.6914 297.805 82.168C298.312 81.6445 298.566 80.8594 298.566 79.8125C298.566 78.9531 298.363 78.2734 297.957 77.7734C297.559 77.2734 296.969 77.0234 296.188 77.0234C295.938 77.0234 295.715 77.0352 295.52 77.0586C295.332 77.0742 295.172 77.0938 295.039 77.1172C294.891 77.1484 294.762 77.1797 294.652 77.2109V82.8828ZM296.445 83.6445C296.289 83.668 296.133 83.6836 295.977 83.6914C295.828 83.6914 295.676 83.6914 295.52 83.6914C295.395 83.6914 295.258 83.6875 295.109 83.6797C294.961 83.6719 294.809 83.6602 294.652 83.6445V84.2188C294.652 84.9141 294.66 85.5234 294.676 86.0469C294.691 86.5625 294.711 87.0078 294.734 87.3828C294.766 87.7578 294.801 88.0742 294.84 88.332C294.879 88.582 294.926 88.7891 294.98 88.9531V89H292.273V88.9531C292.328 88.7891 292.375 88.5781 292.414 88.3203C292.461 88.0625 292.496 87.7461 292.52 87.3711C292.551 86.9883 292.574 86.5352 292.59 86.0117C292.605 85.4883 292.613 84.875 292.613 84.1719V81.2188C292.613 80.5156 292.605 79.9062 292.59 79.3906C292.574 78.8672 292.551 78.418 292.52 78.043C292.496 77.6602 292.461 77.3398 292.414 77.082C292.375 76.8242 292.328 76.6133 292.273 76.4492V76.4023C292.398 76.4102 292.531 76.418 292.672 76.4258C292.789 76.4336 292.918 76.4414 293.059 76.4492C293.207 76.4492 293.355 76.4492 293.504 76.4492C293.754 76.4492 294.125 76.4258 294.617 76.3789C295.109 76.332 295.688 76.3086 296.352 76.3086C297.023 76.3086 297.633 76.3906 298.18 76.5547C298.734 76.7188 299.207 76.9531 299.598 77.2578C299.996 77.5625 300.301 77.9336 300.512 78.3711C300.73 78.8086 300.84 79.2969 300.84 79.8359C300.84 80.2578 300.781 80.6445 300.664 80.9961C300.547 81.3398 300.383 81.6523 300.172 81.9336C299.961 82.207 299.711 82.4492 299.422 82.6602C299.133 82.8711 298.812 83.0547 298.461 83.2109L300.91 86.668C301.121 86.9492 301.332 87.2188 301.543 87.4766C301.762 87.7344 301.969 87.9648 302.164 88.168C302.359 88.3711 302.543 88.543 302.715 88.6836C302.887 88.8164 303.031 88.9062 303.148 88.9531V89H300.078C300.078 88.9297 300.027 88.8086 299.926 88.6367C299.832 88.457 299.719 88.2734 299.586 88.0859C299.461 87.8906 299.332 87.7031 299.199 87.5234C299.074 87.3438 298.98 87.2109 298.918 87.125L296.445 83.6445ZM315.512 89.1641H315.055L305.738 80V84.1719C305.738 84.875 305.742 85.4883 305.75 86.0117C305.758 86.5352 305.77 86.9883 305.785 87.3711C305.809 87.7461 305.836 88.0625 305.867 88.3203C305.906 88.5781 305.953 88.7891 306.008 88.9531V89H304.25V88.9531C304.305 88.7891 304.352 88.5781 304.391 88.3203C304.43 88.0625 304.461 87.7461 304.484 87.3711C304.508 86.9883 304.523 86.5352 304.531 86.0117C304.539 85.4883 304.543 84.875 304.543 84.1719V81.2188C304.543 80.5156 304.539 79.9062 304.531 79.3906C304.523 78.8672 304.508 78.418 304.484 78.043C304.461 77.6602 304.43 77.3398 304.391 77.082C304.352 76.8242 304.305 76.6133 304.25 76.4492V76.4023H304.977L314.305 85.6133V81.2188C314.305 80.5156 314.301 79.9062 314.293 79.3906C314.285 78.8672 314.27 78.418 314.246 78.043C314.23 77.6602 314.207 77.3398 314.176 77.082C314.145 76.8242 314.102 76.6133 314.047 76.4492V76.4023H315.793V76.4492C315.738 76.6133 315.691 76.8242 315.652 77.082C315.621 77.3398 315.594 77.6602 315.57 78.043C315.547 78.418 315.531 78.8672 315.523 79.3906C315.516 79.9062 315.512 80.5156 315.512 81.2188V89.1641ZM326.527 85.0391C326.316 85.0391 326.051 85.0391 325.73 85.0391C325.418 85.0391 325.074 85.0391 324.699 85.0391C324.324 85.0391 323.938 85.0391 323.539 85.0391C323.141 85.0391 322.762 85.043 322.402 85.0508C322.043 85.0508 321.715 85.0547 321.418 85.0625C321.121 85.0625 320.891 85.0625 320.727 85.0625L320.293 85.9766C320.105 86.3516 319.945 86.6797 319.812 86.9609C319.68 87.2344 319.57 87.4766 319.484 87.6875C319.398 87.8984 319.336 88.082 319.297 88.2383C319.258 88.3867 319.238 88.5273 319.238 88.6602C319.238 88.7461 319.242 88.8125 319.25 88.8594C319.258 88.8984 319.27 88.9297 319.285 88.9531V89H317.223V88.9531C317.277 88.8984 317.363 88.7812 317.48 88.6016C317.598 88.4141 317.73 88.1875 317.879 87.9219C318.035 87.6562 318.199 87.3555 318.371 87.0195C318.551 86.6836 318.727 86.3359 318.898 85.9766L323.68 76.1094H324.559L329.246 85.9766C329.426 86.3516 329.605 86.7109 329.785 87.0547C329.973 87.3984 330.145 87.707 330.301 87.9805C330.457 88.2461 330.594 88.4688 330.711 88.6484C330.828 88.8203 330.906 88.9219 330.945 88.9531V89H327.945C327.961 88.9375 327.969 88.8828 327.969 88.8359C327.969 88.7812 327.969 88.7227 327.969 88.6602C327.969 88.4883 327.93 88.2812 327.852 88.0391C327.781 87.7969 327.691 87.5508 327.582 87.3008C327.48 87.043 327.371 86.7969 327.254 86.5625C327.145 86.3281 327.055 86.1328 326.984 85.9766L326.527 85.0391ZM321.184 84.125H321.898C322.227 84.125 322.574 84.125 322.941 84.125C323.316 84.1172 323.691 84.1133 324.066 84.1133C324.441 84.1133 324.805 84.1133 325.156 84.1133C325.508 84.1055 325.824 84.1016 326.105 84.1016L323.68 78.9219L321.184 84.125ZM334.754 88.0859C335.48 88.0859 336.148 88.0586 336.758 88.0039C337.375 87.9414 337.914 87.875 338.375 87.8047C338.914 87.7188 339.402 87.6211 339.84 87.5117L339.57 89.0703C339.461 89.0625 339.273 89.0508 339.008 89.0352C338.75 89.0273 338.477 89.0195 338.188 89.0117C337.898 89.0117 337.629 89.0078 337.379 89C337.129 89 336.957 89 336.863 89H332.375V88.9531C332.43 88.7891 332.477 88.5781 332.516 88.3203C332.562 88.0625 332.598 87.7461 332.621 87.3711C332.652 86.9883 332.676 86.5352 332.691 86.0117C332.707 85.4883 332.715 84.875 332.715 84.1719V81.2188C332.715 80.5156 332.707 79.9062 332.691 79.3906C332.676 78.8672 332.652 78.418 332.621 78.043C332.598 77.6602 332.562 77.3398 332.516 77.082C332.477 76.8242 332.43 76.6133 332.375 76.4492V76.4023H335.082V76.4492C335.027 76.6133 334.98 76.8242 334.941 77.082C334.902 77.3398 334.867 77.6602 334.836 78.043C334.812 78.418 334.793 78.8672 334.777 79.3906C334.762 79.9062 334.754 80.5156 334.754 81.2188V88.0859ZM349.52 85.0391C349.309 85.0391 349.043 85.0391 348.723 85.0391C348.41 85.0391 348.066 85.0391 347.691 85.0391C347.316 85.0391 346.93 85.0391 346.531 85.0391C346.133 85.0391 345.754 85.043 345.395 85.0508C345.035 85.0508 344.707 85.0547 344.41 85.0625C344.113 85.0625 343.883 85.0625 343.719 85.0625L343.285 85.9766C343.098 86.3516 342.938 86.6797 342.805 86.9609C342.672 87.2344 342.562 87.4766 342.477 87.6875C342.391 87.8984 342.328 88.082 342.289 88.2383C342.25 88.3867 342.23 88.5273 342.23 88.6602C342.23 88.7461 342.234 88.8125 342.242 88.8594C342.25 88.8984 342.262 88.9297 342.277 88.9531V89H340.215V88.9531C340.27 88.8984 340.355 88.7812 340.473 88.6016C340.59 88.4141 340.723 88.1875 340.871 87.9219C341.027 87.6562 341.191 87.3555 341.363 87.0195C341.543 86.6836 341.719 86.3359 341.891 85.9766L346.672 76.1094H347.551L352.238 85.9766C352.418 86.3516 352.598 86.7109 352.777 87.0547C352.965 87.3984 353.137 87.707 353.293 87.9805C353.449 88.2461 353.586 88.4688 353.703 88.6484C353.82 88.8203 353.898 88.9219 353.938 88.9531V89H350.938C350.953 88.9375 350.961 88.8828 350.961 88.8359C350.961 88.7812 350.961 88.7227 350.961 88.6602C350.961 88.4883 350.922 88.2812 350.844 88.0391C350.773 87.7969 350.684 87.5508 350.574 87.3008C350.473 87.043 350.363 86.7969 350.246 86.5625C350.137 86.3281 350.047 86.1328 349.977 85.9766L349.52 85.0391ZM344.176 84.125H344.891C345.219 84.125 345.566 84.125 345.934 84.125C346.309 84.1172 346.684 84.1133 347.059 84.1133C347.434 84.1133 347.797 84.1133 348.148 84.1133C348.5 84.1055 348.816 84.1016 349.098 84.1016L346.672 78.9219L344.176 84.125ZM359.211 70.6602H360.453V94.6602H359.211V70.6602ZM369.98 81.5586C370.746 81.6992 371.445 81.7148 372.078 81.6055C372.719 81.4883 373.266 81.2461 373.719 80.8789C374.18 80.5039 374.535 80 374.785 79.3672C375.043 78.7344 375.172 77.9609 375.172 77.0469C375.172 76.4141 375.105 75.8398 374.973 75.3242C374.84 74.8008 374.641 74.3594 374.375 74C374.117 73.6328 373.789 73.3516 373.391 73.1562C372.992 72.9531 372.527 72.8516 371.996 72.8516C371.66 72.8516 371.367 72.8672 371.117 72.8984C370.867 72.9219 370.656 72.9492 370.484 72.9805C370.281 73.0195 370.113 73.0625 369.98 73.1094V81.5586ZM367.508 72.1953C367.664 72.2109 367.828 72.2266 368 72.2422C368.148 72.2578 368.312 72.2695 368.492 72.2773C368.68 72.2773 368.871 72.2773 369.066 72.2773C369.371 72.2773 369.781 72.2422 370.297 72.1719C370.82 72.0938 371.484 72.0547 372.289 72.0547C373.039 72.0547 373.73 72.1641 374.363 72.3828C375.004 72.6016 375.559 72.9219 376.027 73.3438C376.496 73.7656 376.859 74.2812 377.117 74.8906C377.383 75.4922 377.516 76.1797 377.516 76.9531C377.516 77.9922 377.309 78.8906 376.895 79.6484C376.48 80.4062 375.926 81.0195 375.23 81.4883C374.535 81.957 373.734 82.2773 372.828 82.4492C371.922 82.6133 370.973 82.6211 369.98 82.4727V84.418C369.98 85.082 369.988 85.6641 370.004 86.1641C370.027 86.6562 370.051 87.082 370.074 87.4414C370.105 87.8008 370.141 88.1016 370.18 88.3438C370.227 88.5859 370.273 88.7891 370.32 88.9531V89H367.508V88.9531C367.555 88.7891 367.598 88.5859 367.637 88.3438C367.684 88.1016 367.723 87.8008 367.754 87.4414C367.785 87.082 367.809 86.6562 367.824 86.1641C367.84 85.6641 367.848 85.082 367.848 84.418V76.7891C367.848 76.125 367.84 75.5469 367.824 75.0547C367.809 74.5547 367.785 74.125 367.754 73.7656C367.723 73.3984 367.684 73.0938 367.637 72.8516C367.598 72.6094 367.555 72.4062 367.508 72.2422V72.1953ZM389.316 81.1719C389.316 80.4766 389.312 79.8711 389.305 79.3555C389.297 78.8398 389.281 78.3945 389.258 78.0195C389.234 77.6445 389.207 77.332 389.176 77.082C389.145 76.8242 389.105 76.6133 389.059 76.4492V76.4023H390.781V76.4492C390.734 76.6133 390.695 76.8242 390.664 77.082C390.633 77.3398 390.605 77.6602 390.582 78.043C390.559 78.418 390.543 78.8672 390.535 79.3906C390.527 79.9062 390.523 80.5156 390.523 81.2188V84.582C390.523 85.4258 390.391 86.1445 390.125 86.7383C389.867 87.332 389.508 87.8203 389.047 88.2031C388.586 88.5781 388.035 88.8516 387.395 89.0234C386.762 89.2031 386.066 89.293 385.309 89.293C384.543 89.293 383.832 89.207 383.176 89.0352C382.52 88.8711 381.949 88.6055 381.465 88.2383C380.988 87.8711 380.609 87.3945 380.328 86.8086C380.055 86.2227 379.918 85.5117 379.918 84.6758V81.2188C379.918 80.5156 379.91 79.9062 379.895 79.3906C379.879 78.8672 379.855 78.418 379.824 78.043C379.793 77.6602 379.758 77.3398 379.719 77.082C379.68 76.8242 379.633 76.6133 379.578 76.4492V76.4023H382.285V76.4492C382.23 76.6133 382.184 76.8242 382.145 77.082C382.105 77.332 382.07 77.6445 382.039 78.0195C382.016 78.3945 381.996 78.8398 381.98 79.3555C381.965 79.8711 381.957 80.4766 381.957 81.1719V84.6758C381.957 85.3711 382.062 85.9453 382.273 86.3984C382.484 86.8438 382.762 87.1992 383.105 87.4648C383.449 87.7305 383.84 87.918 384.277 88.0273C384.715 88.1289 385.164 88.1797 385.625 88.1797C386.094 88.1797 386.547 88.1289 386.984 88.0273C387.43 87.918 387.824 87.7305 388.168 87.4648C388.52 87.1992 388.797 86.8438 389 86.3984C389.211 85.9453 389.316 85.3711 389.316 84.6758V81.1719ZM405.09 89.1641H404.633L395.316 80V84.1719C395.316 84.875 395.32 85.4883 395.328 86.0117C395.336 86.5352 395.348 86.9883 395.363 87.3711C395.387 87.7461 395.414 88.0625 395.445 88.3203C395.484 88.5781 395.531 88.7891 395.586 88.9531V89H393.828V88.9531C393.883 88.7891 393.93 88.5781 393.969 88.3203C394.008 88.0625 394.039 87.7461 394.062 87.3711C394.086 86.9883 394.102 86.5352 394.109 86.0117C394.117 85.4883 394.121 84.875 394.121 84.1719V81.2188C394.121 80.5156 394.117 79.9062 394.109 79.3906C394.102 78.8672 394.086 78.418 394.062 78.043C394.039 77.6602 394.008 77.3398 393.969 77.082C393.93 76.8242 393.883 76.6133 393.828 76.4492V76.4023H394.555L403.883 85.6133V81.2188C403.883 80.5156 403.879 79.9062 403.871 79.3906C403.863 78.8672 403.848 78.418 403.824 78.043C403.809 77.6602 403.785 77.3398 403.754 77.082C403.723 76.8242 403.68 76.6133 403.625 76.4492V76.4023H405.371V76.4492C405.316 76.6133 405.27 76.8242 405.23 77.082C405.199 77.3398 405.172 77.6602 405.148 78.043C405.125 78.418 405.109 78.8672 405.102 79.3906C405.094 79.9062 405.09 80.5156 405.09 81.2188V89.1641ZM408.453 76.4023C409.219 76.4023 410.004 76.4023 410.809 76.4023C411.613 76.3945 412.359 76.3867 413.047 76.3789C413.734 76.3633 414.324 76.3477 414.816 76.332C415.316 76.3164 415.645 76.293 415.801 76.2617L415.344 77.5273C415.133 77.4727 414.895 77.4219 414.629 77.375C414.395 77.3359 414.109 77.3008 413.773 77.2695C413.445 77.2305 413.062 77.2109 412.625 77.2109C412.469 77.2109 412.289 77.2188 412.086 77.2344C411.883 77.2422 411.688 77.2539 411.5 77.2695C411.281 77.2852 411.059 77.3008 410.832 77.3164V81.9453C411.465 81.9375 412.035 81.9219 412.543 81.8984C413.051 81.875 413.484 81.8438 413.844 81.8047C414.266 81.7734 414.637 81.7305 414.957 81.6758L414.676 83.0703C414.246 83.0156 413.812 82.9688 413.375 82.9297C413 82.8906 412.586 82.8594 412.133 82.8359C411.68 82.8047 411.246 82.7891 410.832 82.7891V88.1094C411.559 88.1094 412.227 88.082 412.836 88.0273C413.445 87.9648 413.977 87.8984 414.43 87.8281C414.961 87.7422 415.441 87.6445 415.871 87.5352L415.602 89.0703C415.484 89.0625 415.293 89.0508 415.027 89.0352C414.77 89.0273 414.496 89.0195 414.207 89.0117C413.926 89.0117 413.66 89.0078 413.41 89C413.16 89 412.988 89 412.895 89H408.453V88.9531C408.508 88.7891 408.555 88.5781 408.594 88.3203C408.641 88.0625 408.676 87.7461 408.699 87.3711C408.73 86.9883 408.754 86.5352 408.77 86.0117C408.785 85.4883 408.793 84.875 408.793 84.1719V81.2188C408.793 80.5156 408.785 79.9062 408.77 79.3906C408.754 78.8672 408.73 78.418 408.699 78.043C408.676 77.6602 408.641 77.3398 408.594 77.082C408.555 76.8242 408.508 76.6133 408.453 76.4492V76.4023Z" fill="#393939"/>
</svg>
