<svg width="691" height="101" viewBox="0 0 691 101" fill="none" xmlns="http://www.w3.org/2000/svg">
<rect width="101" height="101" fill="url(#paint0_radial_8_15)"/>
<path d="M69.5754 22.7275H86.5243C83.9563 22.9843 78.8202 25.501 78.8202 33.5132V79.3522L35.6776 25.8092C34.5045 24.4291 31.811 23.1973 28.6733 23.0705C25.9724 22.9614 22.9424 23.6709 20.2695 25.8092C15.3903 29.4044 7.94304 39.6764 17.1879 52.0029C23.9674 58.7824 32.596 54.8277 36.0628 52.0029C41.3015 46.456 39.016 39.6764 37.2184 36.98C34.1368 32.6657 26.9463 34.6688 23.7363 36.2096C31.1322 29.1219 38.374 32.7428 41.0704 35.4392C46.3092 40.0616 45.3076 46.9953 41.8408 52.0029C40.9586 52.9557 40.0569 53.7685 39.1444 54.4556C39.2728 56.3345 39.5296 61.6329 39.5296 67.7962C39.5296 73.9594 45.4361 76.7842 48.3893 77.4262H29.8996C35.4465 77.4262 37.7806 71.0062 38.2544 67.7962V55.0845C29.4442 60.9091 19.8957 55.6133 17.1879 52.0029C7.94304 39.6764 15.3903 29.4044 20.2695 25.8092C22.9424 23.6709 25.9724 22.9614 28.6733 23.0705L42.6112 22.7275L77.6646 68.1814V33.5132C77.6646 25.501 72.2718 22.9843 69.5754 22.7275Z" fill="white"/>
<path d="M17.1879 52.0029C7.94304 39.6764 15.3903 29.4044 20.2695 25.8092C26.0475 21.1867 33.4948 23.2411 35.6776 25.8092L78.8202 79.3522C78.8202 67.411 78.8202 41.5254 78.8202 33.5132C78.8202 25.501 83.9563 22.9843 86.5243 22.7275H69.5754C72.2718 22.9843 77.6646 25.501 77.6646 33.5132C77.6646 41.5254 77.6646 59.9637 77.6646 68.1814L42.6112 22.7275L28.6733 23.0705M17.1879 52.0029C23.9674 58.7824 32.596 54.8277 36.0628 52.0029C41.3015 46.456 39.016 39.6764 37.2184 36.98C34.1368 32.6657 26.9463 34.6688 23.7363 36.2096C31.1322 29.1219 38.374 32.7428 41.0704 35.4392C46.3092 40.0616 45.3076 46.9953 41.8408 52.0029C40.9586 52.9557 40.0569 53.7685 39.1444 54.4556M17.1879 52.0029C19.8957 55.6133 29.4442 60.9091 38.2544 55.0845M38.2544 55.0845V67.7962C37.7806 71.0062 35.4465 77.4262 29.8996 77.4262H48.3893C45.436 76.7842 39.5296 73.9594 39.5296 67.7962C39.5296 61.6329 39.2728 56.3345 39.1444 54.4556M38.2544 55.0845C38.552 54.8877 38.8488 54.6783 39.1444 54.4556" stroke="white" stroke-width="0.731884"/>
<rect x="8.05075" y="9.5145" width="83.4348" height="83.4348" stroke="white" stroke-width="4.3913"/>
<path d="M152.539 23.5469L152.328 23.6406C151.109 22.5156 149.641 21.6172 147.922 20.9453C146.219 20.2734 144.344 19.9375 142.297 19.9375C140.328 19.9375 138.523 20.25 136.883 20.875C135.242 21.4844 133.828 22.375 132.641 23.5469C131.469 24.7188 130.555 26.1562 129.898 27.8594C129.242 29.5625 128.914 31.5 128.914 33.6719C128.914 36.0625 129.227 38.2969 129.852 40.375C130.477 42.4375 131.406 44.2266 132.641 45.7422C133.875 47.2578 135.414 48.4531 137.258 49.3281C139.117 50.1875 141.281 50.6172 143.75 50.6172C144.641 50.6172 145.531 50.5234 146.422 50.3359C147.312 50.1484 148.164 49.875 148.977 49.5156C149.805 49.1406 150.578 48.6953 151.297 48.1797C152.031 47.6484 152.695 47.0469 153.289 46.375L153.547 46.5391L151.672 51.3203C150.5 51.7734 149.203 52.1172 147.781 52.3516C146.375 52.6016 144.953 52.7266 143.516 52.7266C140.625 52.7266 137.977 52.3125 135.57 51.4844C133.18 50.6406 131.117 49.4531 129.383 47.9219C127.664 46.3906 126.32 44.5547 125.352 42.4141C124.398 40.2578 123.922 37.8672 123.922 35.2422C123.922 33.7578 124.109 32.2969 124.484 30.8594C124.875 29.4219 125.438 28.0547 126.172 26.7578C126.906 25.4609 127.812 24.2734 128.891 23.1953C129.969 22.1016 131.195 21.1562 132.57 20.3594C133.961 19.5625 135.484 18.9453 137.141 18.5078C138.812 18.0547 140.617 17.8281 142.555 17.8281C145.57 17.8281 148.367 18.2891 150.945 19.2109L152.539 23.5469ZM171.852 23.7344H171.336C171.211 23.375 171.008 22.9688 170.727 22.5156C170.461 22.0625 170.102 21.6406 169.648 21.25C169.211 20.8438 168.672 20.5078 168.031 20.2422C167.406 19.9766 166.664 19.8438 165.805 19.8438C165.039 19.8438 164.359 19.9609 163.766 20.1953C163.172 20.4297 162.672 20.7578 162.266 21.1797C161.875 21.6016 161.578 22.1016 161.375 22.6797C161.172 23.2578 161.07 23.8984 161.07 24.6016C161.07 25.7266 161.383 26.8047 162.008 27.8359C162.648 28.8516 163.445 29.8594 164.398 30.8594C165.352 31.8594 166.383 32.8594 167.492 33.8594C168.602 34.8594 169.633 35.8984 170.586 36.9766C171.539 38.0547 172.328 39.1875 172.953 40.375C173.594 41.5469 173.914 42.8125 173.914 44.1719C173.914 45.1875 173.734 46.2109 173.375 47.2422C173.031 48.2578 172.492 49.1719 171.758 49.9844C171.023 50.7969 170.078 51.4609 168.922 51.9766C167.766 52.4766 166.391 52.7266 164.797 52.7266C163.906 52.7266 163.055 52.6406 162.242 52.4688C161.445 52.3125 160.703 52.1172 160.016 51.8828C159.344 51.6328 158.734 51.3672 158.188 51.0859C157.656 50.8047 157.219 50.5469 156.875 50.3125L157.414 45.1328H158C158.172 45.8672 158.453 46.5703 158.844 47.2422C159.234 47.8984 159.711 48.4844 160.273 49C160.852 49.5 161.508 49.9062 162.242 50.2188C162.977 50.5156 163.781 50.6641 164.656 50.6641C165.453 50.6641 166.164 50.5469 166.789 50.3125C167.43 50.0625 167.977 49.7266 168.43 49.3047C168.883 48.8672 169.227 48.3516 169.461 47.7578C169.711 47.1641 169.836 46.5156 169.836 45.8125C169.836 44.8281 169.656 43.9219 169.297 43.0938C168.938 42.25 168.461 41.4531 167.867 40.7031C167.289 39.9531 166.625 39.2266 165.875 38.5234C165.141 37.8203 164.383 37.1172 163.602 36.4141C162.82 35.6953 162.055 34.9609 161.305 34.2109C160.57 33.4609 159.906 32.6641 159.312 31.8203C158.734 30.9609 158.266 30.0469 157.906 29.0781C157.547 28.0938 157.367 27.0156 157.367 25.8438C157.367 24.6094 157.602 23.5 158.07 22.5156C158.555 21.5156 159.188 20.6641 159.969 19.9609C160.766 19.2578 161.664 18.7188 162.664 18.3438C163.664 17.9688 164.695 17.7812 165.758 17.7812C166.539 17.7812 167.258 17.8438 167.914 17.9688C168.57 18.0938 169.156 18.2422 169.672 18.4141C170.203 18.5859 170.664 18.7578 171.055 18.9297C171.445 19.1016 171.766 19.2422 172.016 19.3516L171.852 23.7344ZM191.785 18.3906L215.926 44.0781V27.5781C215.926 26.25 215.91 25.0938 215.879 24.1094C215.848 23.1094 215.801 22.25 215.738 21.5312C215.676 20.7969 215.598 20.1875 215.504 19.7031C215.426 19.2188 215.34 18.8125 215.246 18.4844V18.3906H219.418V18.4844C219.324 18.8125 219.238 19.2188 219.16 19.7031C219.082 20.1875 219.012 20.7969 218.949 21.5312C218.887 22.25 218.84 23.1094 218.809 24.1094C218.777 25.0938 218.762 26.25 218.762 27.5781V52.4688H217.941L193.801 26.8047V42.8359C193.801 44.1641 193.816 45.3281 193.848 46.3281C193.879 47.3125 193.926 48.1641 193.988 48.8828C194.051 49.6016 194.121 50.2031 194.199 50.6875C194.277 51.1719 194.363 51.5781 194.457 51.9062V52H190.285V51.9062C190.379 51.5781 190.465 51.1719 190.543 50.6875C190.637 50.2031 190.715 49.6016 190.777 48.8828C190.84 48.1641 190.887 47.3125 190.918 46.3281C190.949 45.3281 190.965 44.1641 190.965 42.8359V27.5781C190.965 26.25 190.949 25.0938 190.918 24.1094C190.887 23.1094 190.84 22.25 190.777 21.5312C190.715 20.7969 190.637 20.1875 190.543 19.7031C190.465 19.2188 190.379 18.8125 190.285 18.4844V18.3906H191.785ZM243.154 33.6836C243.154 32.6875 243.143 31.8203 243.119 31.082C243.096 30.332 243.061 29.6875 243.014 29.1484C242.967 28.5977 242.914 28.1406 242.855 27.7773C242.797 27.4141 242.732 27.1094 242.662 26.8633V26.793H245.791V26.8633C245.721 27.1094 245.65 27.4141 245.58 27.7773C245.521 28.1406 245.469 28.5977 245.422 29.1484C245.387 29.6875 245.352 30.332 245.316 31.082C245.293 31.8203 245.281 32.6875 245.281 33.6836V43.1758C245.281 44.8516 245.041 46.2812 244.561 47.4648C244.08 48.6484 243.412 49.6211 242.557 50.3828C241.701 51.1328 240.676 51.6777 239.48 52.0176C238.285 52.3691 236.979 52.5449 235.561 52.5449C234.143 52.5449 232.818 52.3809 231.588 52.0527C230.369 51.7246 229.303 51.1973 228.389 50.4707C227.486 49.7324 226.777 48.7832 226.262 47.623C225.746 46.4512 225.488 45.0273 225.488 43.3516V33.6836C225.488 32.6875 225.477 31.8203 225.453 31.082C225.43 30.332 225.395 29.6875 225.348 29.1484C225.301 28.5977 225.242 28.1406 225.172 27.7773C225.113 27.4141 225.049 27.1094 224.979 26.8633V26.793H229.197V26.8633C229.127 27.1094 229.057 27.4141 228.986 27.7773C228.928 28.1406 228.875 28.5977 228.828 29.1484C228.781 29.6875 228.746 30.332 228.723 31.082C228.699 31.8203 228.688 32.6875 228.688 33.6836V43.5449C228.688 44.9395 228.893 46.0938 229.303 47.0078C229.725 47.9102 230.275 48.6309 230.955 49.1699C231.635 49.6973 232.408 50.0664 233.275 50.2773C234.143 50.4883 235.027 50.5938 235.93 50.5938C236.832 50.5938 237.717 50.4883 238.584 50.2773C239.451 50.0664 240.219 49.6973 240.887 49.1699C241.566 48.6309 242.111 47.9102 242.521 47.0078C242.943 46.0938 243.154 44.9395 243.154 43.5449V33.6836ZM254.387 40.8379C255.535 41.0488 256.584 41.0723 257.533 40.9082C258.494 40.7324 259.314 40.3691 259.994 39.8184C260.686 39.2559 261.219 38.5 261.594 37.5508C261.98 36.6016 262.174 35.4414 262.174 34.0703C262.174 33.1211 262.074 32.2598 261.875 31.4863C261.676 30.7012 261.377 30.0391 260.979 29.5C260.592 28.9492 260.1 28.5273 259.502 28.2344C258.904 27.9297 258.207 27.7773 257.41 27.7773C256.906 27.7773 256.467 27.8008 256.092 27.8477C255.717 27.8828 255.4 27.9238 255.143 27.9707C254.838 28.0293 254.586 28.0938 254.387 28.1641V40.8379ZM250.678 26.793C250.912 26.8164 251.158 26.8398 251.416 26.8633C251.639 26.8867 251.885 26.9043 252.154 26.916C252.436 26.916 252.723 26.916 253.016 26.916C253.473 26.916 254.088 26.8633 254.861 26.7578C255.646 26.6406 256.643 26.582 257.85 26.582C258.975 26.582 260.012 26.7461 260.961 27.0742C261.922 27.4023 262.754 27.8828 263.457 28.5156C264.16 29.1484 264.705 29.9219 265.092 30.8359C265.49 31.7383 265.689 32.7695 265.689 33.9297C265.689 35.4883 265.379 36.8359 264.758 37.9727C264.137 39.1094 263.305 40.0293 262.262 40.7324C261.219 41.4355 260.018 41.916 258.658 42.1738C257.299 42.4199 255.875 42.4316 254.387 42.209V45.127C254.387 46.123 254.398 46.9961 254.422 47.7461C254.457 48.4844 254.492 49.123 254.527 49.6621C254.574 50.2012 254.627 50.6523 254.686 51.0156C254.756 51.3789 254.826 51.6836 254.896 51.9297V52H250.678V51.9297C250.748 51.6836 250.812 51.3789 250.871 51.0156C250.941 50.6523 251 50.2012 251.047 49.6621C251.094 49.123 251.129 48.4844 251.152 47.7461C251.176 46.9961 251.188 46.123 251.188 45.127V33.6836C251.188 32.6875 251.176 31.8203 251.152 31.082C251.129 30.332 251.094 29.6875 251.047 29.1484C251 28.5977 250.941 28.1406 250.871 27.7773C250.812 27.4141 250.748 27.1094 250.678 26.8633V26.793ZM287.17 33.6836C287.17 32.6875 287.158 31.8203 287.135 31.082C287.111 30.332 287.076 29.6875 287.029 29.1484C286.982 28.5977 286.93 28.1406 286.871 27.7773C286.812 27.4141 286.748 27.1094 286.678 26.8633V26.793H289.807V26.8633C289.736 27.1094 289.666 27.4141 289.596 27.7773C289.537 28.1406 289.484 28.5977 289.438 29.1484C289.402 29.6875 289.367 30.332 289.332 31.082C289.309 31.8203 289.297 32.6875 289.297 33.6836V43.1758C289.297 44.8516 289.057 46.2812 288.576 47.4648C288.096 48.6484 287.428 49.6211 286.572 50.3828C285.717 51.1328 284.691 51.6777 283.496 52.0176C282.301 52.3691 280.994 52.5449 279.576 52.5449C278.158 52.5449 276.834 52.3809 275.604 52.0527C274.385 51.7246 273.318 51.1973 272.404 50.4707C271.502 49.7324 270.793 48.7832 270.277 47.623C269.762 46.4512 269.504 45.0273 269.504 43.3516V33.6836C269.504 32.6875 269.492 31.8203 269.469 31.082C269.445 30.332 269.41 29.6875 269.363 29.1484C269.316 28.5977 269.258 28.1406 269.188 27.7773C269.129 27.4141 269.064 27.1094 268.994 26.8633V26.793H273.213V26.8633C273.143 27.1094 273.072 27.4141 273.002 27.7773C272.943 28.1406 272.891 28.5977 272.844 29.1484C272.797 29.6875 272.762 30.332 272.738 31.082C272.715 31.8203 272.703 32.6875 272.703 33.6836V43.5449C272.703 44.9395 272.908 46.0938 273.318 47.0078C273.74 47.9102 274.291 48.6309 274.971 49.1699C275.65 49.6973 276.424 50.0664 277.291 50.2773C278.158 50.4883 279.043 50.5938 279.945 50.5938C280.848 50.5938 281.732 50.4883 282.6 50.2773C283.467 50.0664 284.234 49.6973 284.902 49.1699C285.582 48.6309 286.127 47.9102 286.537 47.0078C286.959 46.0938 287.17 44.9395 287.17 43.5449V33.6836ZM298.402 45.127C298.402 46.123 298.414 46.9961 298.438 47.7461C298.473 48.4844 298.508 49.123 298.543 49.6621C298.59 50.2012 298.643 50.6523 298.701 51.0156C298.771 51.3789 298.842 51.6836 298.912 51.9297V52H294.693V51.9297C294.764 51.6836 294.828 51.3789 294.887 51.0156C294.957 50.6523 295.016 50.2012 295.062 49.6621C295.109 49.123 295.145 48.4844 295.168 47.7461C295.191 46.9961 295.203 46.123 295.203 45.127V33.6836C295.203 32.6875 295.191 31.8203 295.168 31.082C295.145 30.332 295.109 29.6875 295.062 29.1484C295.016 28.5977 294.957 28.1406 294.887 27.7773C294.828 27.4141 294.764 27.1094 294.693 26.8633V26.793C294.928 26.8164 295.174 26.8398 295.432 26.8633C295.654 26.8867 295.9 26.9043 296.17 26.916C296.451 26.916 296.738 26.916 297.031 26.916C297.488 26.916 298.104 26.8633 298.877 26.7578C299.662 26.6406 300.658 26.582 301.865 26.582C302.99 26.582 304.027 26.7344 304.977 27.0391C305.938 27.3438 306.77 27.7891 307.473 28.375C308.176 28.9609 308.721 29.6816 309.107 30.5371C309.506 31.3809 309.705 32.3418 309.705 33.4199C309.705 34.2637 309.594 35.0488 309.371 35.7754C309.16 36.4902 308.855 37.1406 308.457 37.7266C308.07 38.3125 307.602 38.834 307.051 39.291C306.5 39.7363 305.885 40.1113 305.205 40.416L311.375 49.082C311.68 49.5156 311.961 49.8906 312.219 50.207C312.488 50.5234 312.74 50.793 312.975 51.0156C313.221 51.2383 313.455 51.4258 313.678 51.5781C313.9 51.7188 314.129 51.8359 314.363 51.9297V52H309.283C309.248 51.7773 309.131 51.4844 308.932 51.1211C308.744 50.7461 308.521 50.377 308.264 50.0137L302.041 41.2422C301.467 41.3008 300.875 41.3301 300.266 41.3301C299.656 41.3301 299.035 41.2773 298.402 41.1719V45.127ZM298.402 39.8008C299.551 40.0117 300.6 40.041 301.549 39.8887C302.51 39.7363 303.33 39.4023 304.01 38.8867C304.701 38.3711 305.234 37.6738 305.609 36.7949C305.996 35.9043 306.189 34.8262 306.189 33.5605C306.189 32.6816 306.09 31.8848 305.891 31.1699C305.691 30.4551 305.393 29.8516 304.994 29.3594C304.607 28.8555 304.115 28.4688 303.518 28.1992C302.92 27.918 302.223 27.7773 301.426 27.7773C300.922 27.7773 300.482 27.8008 300.107 27.8477C299.732 27.8828 299.416 27.9238 299.158 27.9707C298.854 28.0293 298.602 28.0938 298.402 28.1641V39.8008ZM357.172 48.0625C357.172 48.2344 357.148 48.4141 357.102 48.6016C357.07 48.7891 356.984 48.9453 356.844 49.0703C356.141 49.6016 355.375 50.0938 354.547 50.5469C353.734 50.9844 352.852 51.3672 351.898 51.6953C350.945 52.0234 349.914 52.2734 348.805 52.4453C347.711 52.6328 346.531 52.7266 345.266 52.7266C342.422 52.7266 339.828 52.3125 337.484 51.4844C335.141 50.6406 333.125 49.4531 331.438 47.9219C329.766 46.3906 328.469 44.5547 327.547 42.4141C326.625 40.2578 326.164 37.8672 326.164 35.2422C326.164 33.7578 326.352 32.2969 326.727 30.8594C327.117 29.4219 327.68 28.0547 328.414 26.7578C329.148 25.4609 330.055 24.2734 331.133 23.1953C332.211 22.1016 333.438 21.1562 334.812 20.3594C336.203 19.5625 337.727 18.9453 339.383 18.5078C341.055 18.0547 342.859 17.8281 344.797 17.8281C345.547 17.8281 346.312 17.8672 347.094 17.9453C347.875 18.0078 348.648 18.1094 349.414 18.25C350.18 18.375 350.914 18.5312 351.617 18.7188C352.336 18.9062 353.016 19.1172 353.656 19.3516L355.25 23.6875L355.062 23.7812C354.453 23.2344 353.75 22.7266 352.953 22.2578C352.156 21.7891 351.305 21.3828 350.398 21.0391C349.492 20.6953 348.539 20.4297 347.539 20.2422C346.555 20.0391 345.555 19.9375 344.539 19.9375C342.57 19.9375 340.766 20.25 339.125 20.875C337.484 21.4844 336.07 22.375 334.883 23.5469C333.711 24.7188 332.797 26.1562 332.141 27.8594C331.484 29.5625 331.156 31.5 331.156 33.6719C331.156 36.0625 331.469 38.2812 332.094 40.3281C332.719 42.375 333.648 44.1484 334.883 45.6484C336.117 47.1484 337.656 48.3281 339.5 49.1875C341.359 50.0312 343.523 50.4531 345.992 50.4531C347.086 50.4531 348.062 50.3672 348.922 50.1953C349.781 50.0234 350.508 49.8125 351.102 49.5625C351.695 49.2969 352.141 49.0156 352.438 48.7188C352.75 48.4062 352.906 48.125 352.906 47.875V46.9609C352.906 45.8672 352.891 44.9219 352.859 44.125C352.828 43.3281 352.781 42.6406 352.719 42.0625C352.656 41.4688 352.586 40.9609 352.508 40.5391C352.43 40.1172 352.336 39.7266 352.227 39.3672V39.2734H357.852V39.3672C357.758 39.6953 357.664 40.0859 357.57 40.5391C357.492 40.9766 357.422 41.5 357.359 42.1094C357.297 42.7188 357.25 43.4375 357.219 44.2656C357.188 45.0781 357.172 46.0234 357.172 47.1016V48.0625ZM379.818 52V51.9297C379.842 51.8711 379.859 51.7832 379.871 51.666C379.883 51.5488 379.889 51.4434 379.889 51.3496C379.889 50.9863 379.836 50.5879 379.73 50.1543C379.637 49.709 379.449 49.1582 379.168 48.502L377.041 43.7207C376.385 43.6973 375.512 43.6855 374.422 43.6855C373.332 43.6855 372.154 43.6855 370.889 43.6855C369.963 43.6855 369.066 43.6855 368.199 43.6855C367.344 43.6855 366.57 43.6973 365.879 43.7207L363.857 48.3613C363.682 48.7949 363.494 49.2695 363.295 49.7852C363.096 50.3008 362.996 50.8223 362.996 51.3496C362.996 51.502 363.008 51.6309 363.031 51.7363C363.055 51.8301 363.078 51.8945 363.102 51.9297V52H359.516V51.9297C359.727 51.707 359.99 51.3145 360.307 50.752C360.623 50.1777 360.969 49.4629 361.344 48.6074L371.416 26.2656H372.822L382.367 47.7461C382.59 48.25 382.818 48.7422 383.053 49.2227C383.299 49.6914 383.527 50.1133 383.738 50.4883C383.949 50.8633 384.137 51.1797 384.301 51.4375C384.465 51.6953 384.576 51.8594 384.635 51.9297V52H379.818ZM368.428 42.1738C369.107 42.1738 369.805 42.1738 370.52 42.1738C371.234 42.1621 371.932 42.1562 372.611 42.1562C373.303 42.1445 373.965 42.1387 374.598 42.1387C375.23 42.127 375.805 42.1152 376.32 42.1035L371.381 30.9414L366.529 42.1738H368.428ZM390.523 45.127C390.523 46.123 390.535 46.9961 390.559 47.7461C390.594 48.4844 390.629 49.123 390.664 49.6621C390.711 50.2012 390.764 50.6523 390.822 51.0156C390.893 51.3789 390.963 51.6836 391.033 51.9297V52H386.814V51.9297C386.885 51.6836 386.949 51.3789 387.008 51.0156C387.078 50.6523 387.137 50.2012 387.184 49.6621C387.23 49.123 387.266 48.4844 387.289 47.7461C387.312 46.9961 387.324 46.123 387.324 45.127V33.6836C387.324 32.6875 387.312 31.8203 387.289 31.082C387.266 30.332 387.23 29.6875 387.184 29.1484C387.137 28.5977 387.078 28.1406 387.008 27.7773C386.949 27.4141 386.885 27.1094 386.814 26.8633V26.793C387.049 26.8164 387.295 26.8398 387.553 26.8633C387.775 26.8867 388.021 26.9043 388.291 26.916C388.572 26.916 388.859 26.916 389.152 26.916C389.609 26.916 390.225 26.8633 390.998 26.7578C391.783 26.6406 392.779 26.582 393.986 26.582C395.111 26.582 396.148 26.7344 397.098 27.0391C398.059 27.3438 398.891 27.7891 399.594 28.375C400.297 28.9609 400.842 29.6816 401.229 30.5371C401.627 31.3809 401.826 32.3418 401.826 33.4199C401.826 34.2637 401.715 35.0488 401.492 35.7754C401.281 36.4902 400.977 37.1406 400.578 37.7266C400.191 38.3125 399.723 38.834 399.172 39.291C398.621 39.7363 398.006 40.1113 397.326 40.416L403.496 49.082C403.801 49.5156 404.082 49.8906 404.34 50.207C404.609 50.5234 404.861 50.793 405.096 51.0156C405.342 51.2383 405.576 51.4258 405.799 51.5781C406.021 51.7188 406.25 51.8359 406.484 51.9297V52H401.404C401.369 51.7773 401.252 51.4844 401.053 51.1211C400.865 50.7461 400.643 50.377 400.385 50.0137L394.162 41.2422C393.588 41.3008 392.996 41.3301 392.387 41.3301C391.777 41.3301 391.156 41.2773 390.523 41.1719V45.127ZM390.523 39.8008C391.672 40.0117 392.721 40.041 393.67 39.8887C394.631 39.7363 395.451 39.4023 396.131 38.8867C396.822 38.3711 397.355 37.6738 397.73 36.7949C398.117 35.9043 398.311 34.8262 398.311 33.5605C398.311 32.6816 398.211 31.8848 398.012 31.1699C397.812 30.4551 397.514 29.8516 397.115 29.3594C396.729 28.8555 396.236 28.4688 395.639 28.1992C395.041 27.918 394.344 27.7773 393.547 27.7773C393.043 27.7773 392.604 27.8008 392.229 27.8477C391.854 27.8828 391.537 27.9238 391.279 27.9707C390.975 28.0293 390.723 28.0938 390.523 28.1641V39.8008ZM430.268 49.0469C430.268 49.1758 430.25 49.3105 430.215 49.4512C430.191 49.5918 430.127 49.709 430.021 49.8027C429.494 50.2012 428.92 50.5703 428.299 50.9102C427.689 51.2383 427.027 51.5254 426.312 51.7715C425.598 52.0176 424.824 52.2051 423.992 52.334C423.172 52.4746 422.287 52.5449 421.338 52.5449C419.205 52.5449 417.26 52.2344 415.502 51.6133C413.744 50.9805 412.232 50.0898 410.967 48.9414C409.713 47.793 408.74 46.416 408.049 44.8105C407.357 43.1934 407.012 41.4004 407.012 39.4316C407.012 38.3184 407.152 37.2227 407.434 36.1445C407.727 35.0664 408.148 34.041 408.699 33.0684C409.25 32.0957 409.93 31.2051 410.738 30.3965C411.547 29.5762 412.467 28.8672 413.498 28.2695C414.541 27.6719 415.684 27.209 416.926 26.8809C418.18 26.541 419.533 26.3711 420.986 26.3711C421.549 26.3711 422.123 26.4004 422.709 26.459C423.295 26.5059 423.875 26.582 424.449 26.6875C425.023 26.7812 425.574 26.8984 426.102 27.0391C426.641 27.1797 427.15 27.3379 427.631 27.5137L428.826 30.7656L428.686 30.8359C428.229 30.4258 427.701 30.0449 427.104 29.6934C426.506 29.3418 425.867 29.0371 425.188 28.7793C424.508 28.5215 423.793 28.3223 423.043 28.1816C422.305 28.0293 421.555 27.9531 420.793 27.9531C419.316 27.9531 417.963 28.1875 416.732 28.6562C415.502 29.1133 414.441 29.7812 413.551 30.6602C412.672 31.5391 411.986 32.6172 411.494 33.8945C411.002 35.1719 410.756 36.625 410.756 38.2539C410.756 40.0469 410.99 41.7109 411.459 43.2461C411.928 44.7812 412.625 46.1113 413.551 47.2363C414.477 48.3613 415.631 49.2461 417.014 49.8906C418.408 50.5234 420.031 50.8398 421.883 50.8398C422.703 50.8398 423.436 50.7754 424.08 50.6465C424.725 50.5176 425.27 50.3594 425.715 50.1719C426.16 49.9727 426.494 49.7617 426.717 49.5391C426.951 49.3047 427.068 49.0938 427.068 48.9062V48.2207C427.068 47.4004 427.057 46.6914 427.033 46.0938C427.01 45.4961 426.975 44.9805 426.928 44.5469C426.881 44.1016 426.828 43.7207 426.77 43.4043C426.711 43.0879 426.641 42.7949 426.559 42.5254V42.4551H430.777V42.5254C430.707 42.7715 430.637 43.0645 430.566 43.4043C430.508 43.7324 430.455 44.125 430.408 44.582C430.361 45.0391 430.326 45.5781 430.303 46.1992C430.279 46.8086 430.268 47.5176 430.268 48.3262V49.0469ZM465.652 42.5605C465.219 44.8926 464.293 46.8613 462.875 48.4668C464.07 49.6621 465.295 50.7695 466.549 51.7891C467.803 52.7969 469.033 53.6758 470.24 54.4258C471.459 55.1758 472.631 55.7617 473.756 56.1836C474.881 56.6055 475.912 56.8164 476.85 56.8164C477.225 56.8164 477.6 56.7812 477.975 56.7109V57.1152C477.834 57.1738 477.646 57.2559 477.412 57.3613C477.189 57.4668 476.908 57.5664 476.568 57.6602C476.24 57.7539 475.848 57.8359 475.391 57.9062C474.945 57.9766 474.436 58.0117 473.861 58.0117C472.947 58.0117 471.957 57.8184 470.891 57.4316C469.836 57.0566 468.74 56.5293 467.604 55.8496C466.467 55.1816 465.312 54.3848 464.141 53.459C462.98 52.5332 461.844 51.5195 460.73 50.418C459.711 51.1094 458.586 51.6426 457.355 52.0176C456.137 52.3926 454.801 52.5801 453.348 52.5801C452.035 52.5801 450.852 52.416 449.797 52.0879C448.754 51.7598 447.869 51.291 447.143 50.6816C446.416 50.0723 445.854 49.334 445.455 48.4668C445.068 47.5996 444.875 46.627 444.875 45.5488C444.875 44.5176 445.068 43.6035 445.455 42.8066C445.842 41.998 446.346 41.2715 446.967 40.627C447.6 39.9824 448.32 39.3965 449.129 38.8691C449.938 38.3418 450.764 37.832 451.607 37.3398C451.268 36.4609 451.004 35.6055 450.816 34.7734C450.629 33.9414 450.535 33.1445 450.535 32.3828C450.535 31.457 450.682 30.625 450.975 29.8867C451.279 29.1367 451.689 28.5039 452.205 27.9883C452.721 27.4727 453.324 27.0742 454.016 26.793C454.719 26.5117 455.469 26.3711 456.266 26.3711C456.852 26.3711 457.402 26.4531 457.918 26.6172C458.434 26.7812 458.879 27.0273 459.254 27.3555C459.641 27.6719 459.945 28.0703 460.168 28.5508C460.391 29.0312 460.502 29.5879 460.502 30.2207C460.502 31.0176 460.332 31.7324 459.992 32.3652C459.664 32.998 459.225 33.5781 458.674 34.1055C458.135 34.6328 457.514 35.125 456.811 35.582C456.107 36.0391 455.381 36.4844 454.631 36.918C455.006 37.7969 455.451 38.6875 455.967 39.5898C456.494 40.4922 457.068 41.3945 457.689 42.2969C458.311 43.1875 458.979 44.0664 459.693 44.9336C460.408 45.8008 461.146 46.6445 461.908 47.4648C462.471 46.7031 462.91 45.8359 463.227 44.8633C463.555 43.8906 463.719 42.8242 463.719 41.6641C463.719 40.6797 463.66 39.8594 463.543 39.2031C463.438 38.5352 463.326 37.9668 463.209 37.498V37.4277H466.373V37.498C466.291 37.7793 466.227 38.0957 466.18 38.4473C466.145 38.7871 466.104 39.168 466.057 39.5898C466.01 40 465.957 40.457 465.898 40.9609C465.84 41.4531 465.758 41.9863 465.652 42.5605ZM454.666 50.998C455.627 50.998 456.541 50.8691 457.408 50.6113C458.287 50.3535 459.09 49.9785 459.816 49.4863C459.02 48.6426 458.246 47.7754 457.496 46.8848C456.746 45.9824 456.043 45.0684 455.387 44.1426C454.73 43.2051 454.121 42.2676 453.559 41.3301C453.008 40.3809 452.527 39.4492 452.117 38.5352C451.566 38.9102 451.051 39.3027 450.57 39.7129C450.102 40.123 449.691 40.5742 449.34 41.0664C448.988 41.5586 448.707 42.0977 448.496 42.6836C448.297 43.2578 448.197 43.8906 448.197 44.582C448.197 45.4961 448.355 46.3457 448.672 47.1309C449 47.916 449.451 48.5957 450.025 49.1699C450.6 49.7441 451.279 50.1953 452.064 50.5234C452.861 50.8398 453.729 50.998 454.666 50.998ZM453.348 31.4512C453.348 32.1309 453.424 32.834 453.576 33.5605C453.729 34.2754 453.939 35.0195 454.209 35.793C454.783 35.4297 455.316 35.0547 455.809 34.668C456.312 34.2812 456.746 33.8652 457.109 33.4199C457.484 32.9629 457.777 32.4766 457.988 31.9609C458.199 31.4453 458.305 30.877 458.305 30.2559C458.305 29.9043 458.258 29.5762 458.164 29.2715C458.082 28.9551 457.953 28.6797 457.777 28.4453C457.602 28.1992 457.373 28.0117 457.092 27.8828C456.822 27.7422 456.506 27.6719 456.143 27.6719C455.205 27.6719 454.502 28.0059 454.033 28.6738C453.576 29.3418 453.348 30.2676 453.348 31.4512ZM508.18 52V51.9062C508.211 51.8281 508.234 51.7109 508.25 51.5547C508.266 51.3984 508.273 51.2578 508.273 51.1328C508.273 50.6484 508.203 50.1172 508.062 49.5391C507.938 48.9453 507.688 48.2109 507.312 47.3359L504.477 40.9609C503.602 40.9297 502.438 40.9141 500.984 40.9141C499.531 40.9141 497.961 40.9141 496.273 40.9141C495.039 40.9141 493.844 40.9141 492.688 40.9141C491.547 40.9141 490.516 40.9297 489.594 40.9609L486.898 47.1484C486.664 47.7266 486.414 48.3594 486.148 49.0469C485.883 49.7344 485.75 50.4297 485.75 51.1328C485.75 51.3359 485.766 51.5078 485.797 51.6484C485.828 51.7734 485.859 51.8594 485.891 51.9062V52H481.109V51.9062C481.391 51.6094 481.742 51.0859 482.164 50.3359C482.586 49.5703 483.047 48.6172 483.547 47.4766L496.977 17.6875H498.852L511.578 46.3281C511.875 47 512.18 47.6562 512.492 48.2969C512.82 48.9219 513.125 49.4844 513.406 49.9844C513.688 50.4844 513.938 50.9062 514.156 51.25C514.375 51.5938 514.523 51.8125 514.602 51.9062V52H508.18ZM492.992 38.8984C493.898 38.8984 494.828 38.8984 495.781 38.8984C496.734 38.8828 497.664 38.875 498.57 38.875C499.492 38.8594 500.375 38.8516 501.219 38.8516C502.062 38.8359 502.828 38.8203 503.516 38.8047L496.93 23.9219L490.461 38.8984H492.992ZM527.182 30.8008H526.795C526.701 30.5312 526.549 30.2266 526.338 29.8867C526.139 29.5469 525.869 29.2305 525.529 28.9375C525.201 28.6328 524.797 28.3809 524.316 28.1816C523.848 27.9824 523.291 27.8828 522.646 27.8828C522.072 27.8828 521.562 27.9707 521.117 28.1465C520.672 28.3223 520.297 28.5684 519.992 28.8848C519.699 29.2012 519.477 29.5762 519.324 30.0098C519.172 30.4434 519.096 30.9238 519.096 31.4512C519.096 32.2949 519.33 33.1035 519.799 33.877C520.279 34.6387 520.877 35.3945 521.592 36.1445C522.307 36.8945 523.08 37.6445 523.912 38.3945C524.744 39.1445 525.518 39.9238 526.232 40.7324C526.947 41.541 527.539 42.3906 528.008 43.2812C528.488 44.1602 528.729 45.1094 528.729 46.1289C528.729 46.8906 528.594 47.6582 528.324 48.4316C528.066 49.1934 527.662 49.8789 527.111 50.4883C526.561 51.0977 525.852 51.5957 524.984 51.9824C524.117 52.3574 523.086 52.5449 521.891 52.5449C521.223 52.5449 520.584 52.4805 519.975 52.3516C519.377 52.2344 518.82 52.0879 518.305 51.9121C517.801 51.7246 517.344 51.5254 516.934 51.3145C516.535 51.1035 516.207 50.9102 515.949 50.7344L516.354 46.8496H516.793C516.922 47.4004 517.133 47.9277 517.426 48.4316C517.719 48.9238 518.076 49.3633 518.498 49.75C518.932 50.125 519.424 50.4297 519.975 50.6641C520.525 50.8867 521.129 50.998 521.785 50.998C522.383 50.998 522.916 50.9102 523.385 50.7344C523.865 50.5469 524.275 50.2949 524.615 49.9785C524.955 49.6504 525.213 49.2637 525.389 48.8184C525.576 48.373 525.67 47.8867 525.67 47.3594C525.67 46.6211 525.535 45.9414 525.266 45.3203C524.996 44.6875 524.639 44.0898 524.193 43.5273C523.76 42.9648 523.262 42.4199 522.699 41.8926C522.148 41.3652 521.58 40.8379 520.994 40.3105C520.408 39.7715 519.834 39.2207 519.271 38.6582C518.721 38.0957 518.223 37.498 517.777 36.8652C517.344 36.2207 516.992 35.5352 516.723 34.8086C516.453 34.0703 516.318 33.2617 516.318 32.3828C516.318 31.457 516.494 30.625 516.846 29.8867C517.209 29.1367 517.684 28.498 518.27 27.9707C518.867 27.4434 519.541 27.0391 520.291 26.7578C521.041 26.4766 521.814 26.3359 522.611 26.3359C523.197 26.3359 523.736 26.3828 524.229 26.4766C524.721 26.5703 525.16 26.6816 525.547 26.8105C525.945 26.9395 526.291 27.0684 526.584 27.1973C526.877 27.3262 527.117 27.4316 527.305 27.5137L527.182 30.8008ZM543.389 30.8008H543.002C542.908 30.5312 542.756 30.2266 542.545 29.8867C542.346 29.5469 542.076 29.2305 541.736 28.9375C541.408 28.6328 541.004 28.3809 540.523 28.1816C540.055 27.9824 539.498 27.8828 538.854 27.8828C538.279 27.8828 537.77 27.9707 537.324 28.1465C536.879 28.3223 536.504 28.5684 536.199 28.8848C535.906 29.2012 535.684 29.5762 535.531 30.0098C535.379 30.4434 535.303 30.9238 535.303 31.4512C535.303 32.2949 535.537 33.1035 536.006 33.877C536.486 34.6387 537.084 35.3945 537.799 36.1445C538.514 36.8945 539.287 37.6445 540.119 38.3945C540.951 39.1445 541.725 39.9238 542.439 40.7324C543.154 41.541 543.746 42.3906 544.215 43.2812C544.695 44.1602 544.936 45.1094 544.936 46.1289C544.936 46.8906 544.801 47.6582 544.531 48.4316C544.273 49.1934 543.869 49.8789 543.318 50.4883C542.768 51.0977 542.059 51.5957 541.191 51.9824C540.324 52.3574 539.293 52.5449 538.098 52.5449C537.43 52.5449 536.791 52.4805 536.182 52.3516C535.584 52.2344 535.027 52.0879 534.512 51.9121C534.008 51.7246 533.551 51.5254 533.141 51.3145C532.742 51.1035 532.414 50.9102 532.156 50.7344L532.561 46.8496H533C533.129 47.4004 533.34 47.9277 533.633 48.4316C533.926 48.9238 534.283 49.3633 534.705 49.75C535.139 50.125 535.631 50.4297 536.182 50.6641C536.732 50.8867 537.336 50.998 537.992 50.998C538.59 50.998 539.123 50.9102 539.592 50.7344C540.072 50.5469 540.482 50.2949 540.822 49.9785C541.162 49.6504 541.42 49.2637 541.596 48.8184C541.783 48.373 541.877 47.8867 541.877 47.3594C541.877 46.6211 541.742 45.9414 541.473 45.3203C541.203 44.6875 540.846 44.0898 540.4 43.5273C539.967 42.9648 539.469 42.4199 538.906 41.8926C538.355 41.3652 537.787 40.8379 537.201 40.3105C536.615 39.7715 536.041 39.2207 535.479 38.6582C534.928 38.0957 534.43 37.498 533.984 36.8652C533.551 36.2207 533.199 35.5352 532.93 34.8086C532.66 34.0703 532.525 33.2617 532.525 32.3828C532.525 31.457 532.701 30.625 533.053 29.8867C533.416 29.1367 533.891 28.498 534.477 27.9707C535.074 27.4434 535.748 27.0391 536.498 26.7578C537.248 26.4766 538.021 26.3359 538.818 26.3359C539.404 26.3359 539.943 26.3828 540.436 26.4766C540.928 26.5703 541.367 26.6816 541.754 26.8105C542.152 26.9395 542.498 27.0684 542.791 27.1973C543.084 27.3262 543.324 27.4316 543.512 27.5137L543.389 30.8008ZM560.756 26.3711C562.713 26.3711 564.518 26.6934 566.17 27.3379C567.834 27.9707 569.27 28.8672 570.477 30.0273C571.684 31.1758 572.627 32.5586 573.307 34.1758C573.986 35.793 574.326 37.5801 574.326 39.5371C574.326 40.6504 574.197 41.7461 573.939 42.8242C573.682 43.9023 573.301 44.9219 572.797 45.8828C572.305 46.8438 571.695 47.7344 570.969 48.5547C570.242 49.3633 569.41 50.0664 568.473 50.6641C567.547 51.25 566.521 51.707 565.396 52.0352C564.271 52.375 563.059 52.5449 561.758 52.5449C559.801 52.5449 557.99 52.2344 556.326 51.6133C554.674 50.9805 553.244 50.0898 552.037 48.9414C550.83 47.793 549.887 46.416 549.207 44.8105C548.527 43.1934 548.188 41.4004 548.188 39.4316C548.188 38.3184 548.316 37.2227 548.574 36.1445C548.832 35.0664 549.207 34.041 549.699 33.0684C550.203 32.0957 550.812 31.2051 551.527 30.3965C552.254 29.5762 553.08 28.8672 554.006 28.2695C554.943 27.6719 555.975 27.209 557.1 26.8809C558.236 26.541 559.455 26.3711 560.756 26.3711ZM561.758 50.9629C563.059 50.9629 564.248 50.7285 565.326 50.2598C566.404 49.791 567.33 49.1113 568.104 48.2207C568.889 47.3301 569.498 46.2461 569.932 44.9688C570.365 43.6797 570.582 42.2207 570.582 40.5918C570.582 38.7871 570.371 37.1172 569.949 35.582C569.539 34.0352 568.924 32.6992 568.104 31.5742C567.283 30.4375 566.258 29.5527 565.027 28.9199C563.809 28.2754 562.385 27.9531 560.756 27.9531C559.455 27.9531 558.266 28.1875 557.188 28.6562C556.109 29.1133 555.178 29.7812 554.393 30.6602C553.619 31.5391 553.016 32.6172 552.582 33.8945C552.148 35.1719 551.932 36.625 551.932 38.2539C551.932 40.0469 552.137 41.7227 552.547 43.2812C552.957 44.8281 553.572 46.1699 554.393 47.3066C555.213 48.4434 556.238 49.3398 557.469 49.9961C558.699 50.6406 560.129 50.9629 561.758 50.9629ZM598.689 30.6602L598.531 30.7305C597.617 29.8867 596.516 29.2129 595.227 28.709C593.949 28.2051 592.543 27.9531 591.008 27.9531C589.531 27.9531 588.178 28.1875 586.947 28.6562C585.717 29.1133 584.656 29.7812 583.766 30.6602C582.887 31.5391 582.201 32.6172 581.709 33.8945C581.217 35.1719 580.971 36.625 580.971 38.2539C580.971 40.0469 581.205 41.7227 581.674 43.2812C582.143 44.8281 582.84 46.1699 583.766 47.3066C584.691 48.4434 585.846 49.3398 587.229 49.9961C588.623 50.6406 590.246 50.9629 592.098 50.9629C592.766 50.9629 593.434 50.8926 594.102 50.752C594.77 50.6113 595.408 50.4062 596.018 50.1367C596.639 49.8555 597.219 49.5215 597.758 49.1348C598.309 48.7363 598.807 48.2852 599.252 47.7812L599.445 47.9043L598.039 51.4902C597.16 51.8301 596.188 52.0879 595.121 52.2637C594.066 52.4512 593 52.5449 591.922 52.5449C589.754 52.5449 587.768 52.2344 585.963 51.6133C584.17 50.9805 582.623 50.0898 581.322 48.9414C580.033 47.793 579.025 46.416 578.299 44.8105C577.584 43.1934 577.227 41.4004 577.227 39.4316C577.227 38.3184 577.367 37.2227 577.648 36.1445C577.941 35.0664 578.363 34.041 578.914 33.0684C579.465 32.0957 580.145 31.2051 580.953 30.3965C581.762 29.5762 582.682 28.8672 583.713 28.2695C584.756 27.6719 585.898 27.209 587.141 26.8809C588.395 26.541 589.748 26.3711 591.201 26.3711C593.463 26.3711 595.561 26.7168 597.494 27.4082L598.689 30.6602ZM602.82 51.9297C602.891 51.6836 602.955 51.3789 603.014 51.0156C603.072 50.6523 603.125 50.2012 603.172 49.6621C603.219 49.123 603.254 48.4844 603.277 47.7461C603.301 46.9961 603.312 46.123 603.312 45.127V33.6836C603.312 32.6875 603.301 31.8203 603.277 31.082C603.254 30.332 603.219 29.6875 603.172 29.1484C603.125 28.5977 603.072 28.1406 603.014 27.7773C602.955 27.4141 602.891 27.1094 602.82 26.8633V26.793H607.021V26.8633C606.951 27.1094 606.881 27.4141 606.811 27.7773C606.752 28.1406 606.699 28.5977 606.652 29.1484C606.617 29.6875 606.582 30.332 606.547 31.082C606.523 31.8203 606.512 32.6875 606.512 33.6836V45.127C606.512 46.123 606.523 46.9961 606.547 47.7461C606.582 48.4844 606.617 49.123 606.652 49.6621C606.699 50.2012 606.752 50.6523 606.811 51.0156C606.881 51.3789 606.951 51.6836 607.021 51.9297V52H602.82V51.9297ZM629.662 52V51.9297C629.686 51.8711 629.703 51.7832 629.715 51.666C629.727 51.5488 629.732 51.4434 629.732 51.3496C629.732 50.9863 629.68 50.5879 629.574 50.1543C629.48 49.709 629.293 49.1582 629.012 48.502L626.885 43.7207C626.229 43.6973 625.355 43.6855 624.266 43.6855C623.176 43.6855 621.998 43.6855 620.732 43.6855C619.807 43.6855 618.91 43.6855 618.043 43.6855C617.188 43.6855 616.414 43.6973 615.723 43.7207L613.701 48.3613C613.525 48.7949 613.338 49.2695 613.139 49.7852C612.939 50.3008 612.84 50.8223 612.84 51.3496C612.84 51.502 612.852 51.6309 612.875 51.7363C612.898 51.8301 612.922 51.8945 612.945 51.9297V52H609.359V51.9297C609.57 51.707 609.834 51.3145 610.15 50.752C610.467 50.1777 610.812 49.4629 611.188 48.6074L621.26 26.2656H622.666L632.211 47.7461C632.434 48.25 632.662 48.7422 632.896 49.2227C633.143 49.6914 633.371 50.1133 633.582 50.4883C633.793 50.8633 633.98 51.1797 634.145 51.4375C634.309 51.6953 634.42 51.8594 634.479 51.9297V52H629.662ZM618.271 42.1738C618.951 42.1738 619.648 42.1738 620.363 42.1738C621.078 42.1621 621.775 42.1562 622.455 42.1562C623.146 42.1445 623.809 42.1387 624.441 42.1387C625.074 42.127 625.648 42.1152 626.164 42.1035L621.225 30.9414L616.373 42.1738H618.271ZM642.406 28.3398C641.023 28.3398 639.775 28.4043 638.662 28.5332C637.549 28.6504 636.588 28.7793 635.779 28.9199C634.842 29.0957 634.004 29.2891 633.266 29.5L633.775 26.6523C633.916 26.6641 634.127 26.6758 634.408 26.6875C634.689 26.6992 635 26.7109 635.34 26.7227C635.691 26.7344 636.055 26.7461 636.43 26.7578C636.816 26.7578 637.18 26.7637 637.52 26.7754C637.859 26.7754 638.158 26.7812 638.416 26.793C638.686 26.793 638.879 26.793 638.996 26.793H649.033C649.15 26.793 649.338 26.793 649.596 26.793C649.865 26.7812 650.17 26.7754 650.51 26.7754C650.85 26.7637 651.207 26.7578 651.582 26.7578C651.969 26.7461 652.332 26.7344 652.672 26.7227C653.023 26.7109 653.34 26.6992 653.621 26.6875C653.902 26.6758 654.113 26.6641 654.254 26.6523L654.764 29.5C654.014 29.2891 653.17 29.0957 652.232 28.9199C651.424 28.7793 650.463 28.6504 649.35 28.5332C648.236 28.4043 646.988 28.3398 645.605 28.3398V45.127C645.605 46.123 645.617 46.9961 645.641 47.7461C645.676 48.4844 645.711 49.123 645.746 49.6621C645.793 50.2012 645.846 50.6523 645.904 51.0156C645.975 51.3789 646.045 51.6836 646.115 51.9297V52H641.914V51.9297C641.984 51.6836 642.049 51.3789 642.107 51.0156C642.166 50.6523 642.219 50.2012 642.266 49.6621C642.312 49.123 642.348 48.4844 642.371 47.7461C642.395 46.9961 642.406 46.123 642.406 45.127V28.3398ZM657.295 26.793C658.76 26.793 660.213 26.7871 661.654 26.7754C663.107 26.7637 664.438 26.752 665.645 26.7402C666.852 26.7168 667.883 26.6875 668.738 26.6523C669.594 26.6172 670.174 26.5703 670.479 26.5117L669.617 28.8496C669.23 28.7441 668.779 28.6504 668.264 28.5684C667.818 28.498 667.273 28.4336 666.629 28.375C665.996 28.3047 665.264 28.2695 664.432 28.2695C664.15 28.2695 663.811 28.2812 663.412 28.3047C663.025 28.3164 662.65 28.334 662.287 28.3574C661.865 28.3809 661.438 28.4043 661.004 28.4277V38.0254C662.211 38.0137 663.301 37.9785 664.273 37.9199C665.246 37.8613 666.072 37.8027 666.752 37.7441C667.549 37.6738 668.252 37.5918 668.861 37.498L668.316 40.0469C667.508 39.9414 666.682 39.8418 665.838 39.748C665.111 39.666 664.32 39.5957 663.465 39.5371C662.609 39.4668 661.789 39.4316 661.004 39.4316V50.4531C662.387 50.4531 663.658 50.3945 664.818 50.2773C665.979 50.1602 666.992 50.0254 667.859 49.873C668.867 49.709 669.787 49.5156 670.619 49.293L670.109 52.1406C669.969 52.1289 669.758 52.1172 669.477 52.1055C669.195 52.0938 668.879 52.082 668.527 52.0703C668.188 52.0586 667.824 52.0469 667.438 52.0352C667.062 52.0352 666.705 52.0293 666.365 52.0176C666.025 52.0176 665.721 52.0117 665.451 52C665.193 52 665.006 52 664.889 52H657.295V51.9297C657.365 51.6836 657.43 51.3789 657.488 51.0156C657.559 50.6523 657.617 50.2012 657.664 49.6621C657.711 49.123 657.746 48.4844 657.77 47.7461C657.793 46.9961 657.805 46.123 657.805 45.127V33.6836C657.805 32.6875 657.793 31.8203 657.77 31.082C657.746 30.332 657.711 29.6875 657.664 29.1484C657.617 28.5977 657.559 28.1406 657.488 27.7773C657.43 27.4141 657.365 27.1094 657.295 26.8633V26.793ZM685.455 30.8008H685.068C684.975 30.5312 684.822 30.2266 684.611 29.8867C684.412 29.5469 684.143 29.2305 683.803 28.9375C683.475 28.6328 683.07 28.3809 682.59 28.1816C682.121 27.9824 681.564 27.8828 680.92 27.8828C680.346 27.8828 679.836 27.9707 679.391 28.1465C678.945 28.3223 678.57 28.5684 678.266 28.8848C677.973 29.2012 677.75 29.5762 677.598 30.0098C677.445 30.4434 677.369 30.9238 677.369 31.4512C677.369 32.2949 677.604 33.1035 678.072 33.877C678.553 34.6387 679.15 35.3945 679.865 36.1445C680.58 36.8945 681.354 37.6445 682.186 38.3945C683.018 39.1445 683.791 39.9238 684.506 40.7324C685.221 41.541 685.812 42.3906 686.281 43.2812C686.762 44.1602 687.002 45.1094 687.002 46.1289C687.002 46.8906 686.867 47.6582 686.598 48.4316C686.34 49.1934 685.936 49.8789 685.385 50.4883C684.834 51.0977 684.125 51.5957 683.258 51.9824C682.391 52.3574 681.359 52.5449 680.164 52.5449C679.496 52.5449 678.857 52.4805 678.248 52.3516C677.65 52.2344 677.094 52.0879 676.578 51.9121C676.074 51.7246 675.617 51.5254 675.207 51.3145C674.809 51.1035 674.48 50.9102 674.223 50.7344L674.627 46.8496H675.066C675.195 47.4004 675.406 47.9277 675.699 48.4316C675.992 48.9238 676.35 49.3633 676.771 49.75C677.205 50.125 677.697 50.4297 678.248 50.6641C678.799 50.8867 679.402 50.998 680.059 50.998C680.656 50.998 681.189 50.9102 681.658 50.7344C682.139 50.5469 682.549 50.2949 682.889 49.9785C683.229 49.6504 683.486 49.2637 683.662 48.8184C683.85 48.373 683.943 47.8867 683.943 47.3594C683.943 46.6211 683.809 45.9414 683.539 45.3203C683.27 44.6875 682.912 44.0898 682.467 43.5273C682.033 42.9648 681.535 42.4199 680.973 41.8926C680.422 41.3652 679.854 40.8379 679.268 40.3105C678.682 39.7715 678.107 39.2207 677.545 38.6582C676.994 38.0957 676.496 37.498 676.051 36.8652C675.617 36.2207 675.266 35.5352 674.996 34.8086C674.727 34.0703 674.592 33.2617 674.592 32.3828C674.592 31.457 674.768 30.625 675.119 29.8867C675.482 29.1367 675.957 28.498 676.543 27.9707C677.141 27.4434 677.814 27.0391 678.564 26.7578C679.314 26.4766 680.088 26.3359 680.885 26.3359C681.471 26.3359 682.01 26.3828 682.502 26.4766C682.994 26.5703 683.434 26.6816 683.82 26.8105C684.219 26.9395 684.564 27.0684 684.857 27.1973C685.15 27.3262 685.391 27.4316 685.578 27.5137L685.455 30.8008Z" fill="black"/>
<path d="M124.066 76.7891C124.066 76.125 124.059 75.5469 124.043 75.0547C124.027 74.5547 124.004 74.125 123.973 73.7656C123.941 73.3984 123.902 73.0938 123.855 72.8516C123.816 72.6094 123.773 72.4062 123.727 72.2422V72.1953C123.883 72.2031 124.047 72.207 124.219 72.207C124.367 72.2148 124.531 72.2188 124.711 72.2188C124.898 72.2188 125.09 72.2188 125.285 72.2188C125.566 72.2188 125.945 72.1914 126.422 72.1367C126.906 72.082 127.527 72.0547 128.285 72.0547C128.988 72.0547 129.637 72.1484 130.23 72.3359C130.824 72.5156 131.336 72.7773 131.766 73.1211C132.203 73.4648 132.543 73.8906 132.785 74.3984C133.035 74.8984 133.16 75.4688 133.16 76.1094C133.16 76.6484 133.086 77.1328 132.938 77.5625C132.789 77.9844 132.578 78.3555 132.305 78.6758C132.039 78.9883 131.715 79.2539 131.332 79.4727C130.957 79.6836 130.543 79.8516 130.09 79.9766C130.754 80.0781 131.359 80.25 131.906 80.4922C132.453 80.7266 132.922 81.0234 133.312 81.3828C133.711 81.7422 134.016 82.1641 134.227 82.6484C134.445 83.125 134.555 83.6562 134.555 84.2422C134.555 85.8906 134.012 87.1289 132.926 87.957C131.84 88.7773 130.215 89.1875 128.051 89.1875C127.816 89.1875 127.543 89.1758 127.23 89.1523C126.918 89.1367 126.598 89.1172 126.27 89.0938C125.949 89.0703 125.633 89.0469 125.32 89.0234C125.008 89.0078 124.734 89 124.5 89H123.727V88.9531C123.773 88.7891 123.816 88.5859 123.855 88.3438C123.902 88.1016 123.941 87.8008 123.973 87.4414C124.004 87.082 124.027 86.6562 124.043 86.1641C124.059 85.6641 124.066 85.082 124.066 84.418V76.7891ZM128.367 80.6914C127.836 80.6914 127.391 80.7109 127.031 80.75C126.672 80.7891 126.395 80.8281 126.199 80.8672V84.418C126.199 85.332 126.215 86.0859 126.246 86.6797C126.277 87.2734 126.32 87.7578 126.375 88.1328C126.672 88.1719 126.969 88.207 127.266 88.2383C127.562 88.2695 127.801 88.2852 127.98 88.2852C129.441 88.2852 130.508 87.9609 131.18 87.3125C131.859 86.6562 132.199 85.6523 132.199 84.3008C132.199 83.7695 132.117 83.2852 131.953 82.8477C131.797 82.4023 131.559 82.0195 131.238 81.6992C130.926 81.3789 130.527 81.1328 130.043 80.9609C129.566 80.7812 129.008 80.6914 128.367 80.6914ZM126.199 79.8125C126.418 79.8359 126.613 79.8516 126.785 79.8594C126.957 79.8594 127.141 79.8594 127.336 79.8594C127.867 79.8594 128.352 79.7852 128.789 79.6367C129.227 79.4805 129.598 79.25 129.902 78.9453C130.215 78.6406 130.457 78.2617 130.629 77.8086C130.801 77.3477 130.887 76.8125 130.887 76.2031C130.887 75.6953 130.824 75.2344 130.699 74.8203C130.574 74.4062 130.387 74.0547 130.137 73.7656C129.895 73.4688 129.594 73.2422 129.234 73.0859C128.875 72.9297 128.465 72.8516 128.004 72.8516C127.707 72.8516 127.445 72.8633 127.219 72.8867C127 72.9102 126.812 72.9375 126.656 72.9688C126.477 73 126.324 73.0391 126.199 73.0859V79.8125ZM144.598 85.0391C144.387 85.0391 144.121 85.0391 143.801 85.0391C143.488 85.0391 143.145 85.0391 142.77 85.0391C142.395 85.0391 142.008 85.0391 141.609 85.0391C141.211 85.0391 140.832 85.043 140.473 85.0508C140.113 85.0508 139.785 85.0547 139.488 85.0625C139.191 85.0625 138.961 85.0625 138.797 85.0625L138.363 85.9766C138.176 86.3516 138.016 86.6797 137.883 86.9609C137.75 87.2344 137.641 87.4766 137.555 87.6875C137.469 87.8984 137.406 88.082 137.367 88.2383C137.328 88.3867 137.309 88.5273 137.309 88.6602C137.309 88.7461 137.312 88.8125 137.32 88.8594C137.328 88.8984 137.34 88.9297 137.355 88.9531V89H135.293V88.9531C135.348 88.8984 135.434 88.7812 135.551 88.6016C135.668 88.4141 135.801 88.1875 135.949 87.9219C136.105 87.6562 136.27 87.3555 136.441 87.0195C136.621 86.6836 136.797 86.3359 136.969 85.9766L141.75 76.1094H142.629L147.316 85.9766C147.496 86.3516 147.676 86.7109 147.855 87.0547C148.043 87.3984 148.215 87.707 148.371 87.9805C148.527 88.2461 148.664 88.4688 148.781 88.6484C148.898 88.8203 148.977 88.9219 149.016 88.9531V89H146.016C146.031 88.9375 146.039 88.8828 146.039 88.8359C146.039 88.7812 146.039 88.7227 146.039 88.6602C146.039 88.4883 146 88.2812 145.922 88.0391C145.852 87.7969 145.762 87.5508 145.652 87.3008C145.551 87.043 145.441 86.7969 145.324 86.5625C145.215 86.3281 145.125 86.1328 145.055 85.9766L144.598 85.0391ZM139.254 84.125H139.969C140.297 84.125 140.645 84.125 141.012 84.125C141.387 84.1172 141.762 84.1133 142.137 84.1133C142.512 84.1133 142.875 84.1133 143.227 84.1133C143.578 84.1055 143.895 84.1016 144.176 84.1016L141.75 78.9219L139.254 84.125ZM153.012 77.2695C152.301 77.2695 151.652 77.3008 151.066 77.3633C150.488 77.4258 149.988 77.4922 149.566 77.5625C149.082 77.6484 148.645 77.7422 148.254 77.8438L148.488 76.332C148.605 76.3477 148.797 76.3594 149.062 76.3672C149.328 76.375 149.605 76.3828 149.895 76.3906C150.191 76.3906 150.469 76.3945 150.727 76.4023C150.992 76.4023 151.176 76.4023 151.277 76.4023H156.82C156.914 76.4023 157.086 76.4023 157.336 76.4023C157.594 76.3945 157.867 76.3906 158.156 76.3906C158.445 76.3828 158.723 76.375 158.988 76.3672C159.254 76.3594 159.445 76.3477 159.562 76.332L159.797 77.8438C159.422 77.7422 158.992 77.6484 158.508 77.5625C158.094 77.4922 157.594 77.4258 157.008 77.3633C156.43 77.3008 155.777 77.2695 155.051 77.2695V84.1719C155.051 84.875 155.059 85.4883 155.074 86.0117C155.09 86.5352 155.109 86.9883 155.133 87.3711C155.164 87.7461 155.199 88.0625 155.238 88.3203C155.277 88.5781 155.324 88.7891 155.379 88.9531V89H152.672V88.9531C152.727 88.7891 152.773 88.5781 152.812 88.3203C152.852 88.0625 152.887 87.7461 152.918 87.3711C152.949 86.9883 152.973 86.5352 152.988 86.0117C153.004 85.4883 153.012 84.875 153.012 84.1719V77.2695ZM170.438 82.9766C170.195 82.9766 169.895 82.9766 169.535 82.9766C169.176 82.9688 168.785 82.9609 168.363 82.9531C167.941 82.9453 167.504 82.9414 167.051 82.9414C166.598 82.9336 166.16 82.9297 165.738 82.9297C165.34 82.9297 164.965 82.9336 164.613 82.9414C164.27 82.9492 163.973 82.9609 163.723 82.9766V84.1719C163.723 84.875 163.73 85.4883 163.746 86.0117C163.762 86.5352 163.781 86.9883 163.805 87.3711C163.836 87.7461 163.871 88.0625 163.91 88.3203C163.949 88.5781 163.996 88.7891 164.051 88.9531V89H161.344V88.9531C161.398 88.7891 161.445 88.5781 161.484 88.3203C161.531 88.0625 161.566 87.7461 161.59 87.3711C161.621 86.9883 161.645 86.5352 161.66 86.0117C161.676 85.4883 161.684 84.875 161.684 84.1719V81.2188C161.684 80.5156 161.676 79.9062 161.66 79.3906C161.645 78.8672 161.621 78.418 161.59 78.043C161.566 77.6602 161.531 77.3398 161.484 77.082C161.445 76.8242 161.398 76.6133 161.344 76.4492V76.4023H164.051V76.4492C163.996 76.6133 163.949 76.8242 163.91 77.082C163.871 77.3398 163.836 77.6602 163.805 78.043C163.781 78.418 163.762 78.8672 163.746 79.3906C163.73 79.9062 163.723 80.5156 163.723 81.2188V82.0156H165.445C165.875 82.0156 166.328 82.0156 166.805 82.0156C167.281 82.0078 167.742 82.0039 168.188 82.0039C168.633 81.9961 169.051 81.9883 169.441 81.9805C169.832 81.9727 170.164 81.9609 170.438 81.9453V81.2188C170.438 80.5156 170.43 79.9062 170.414 79.3906C170.398 78.8672 170.375 78.418 170.344 78.043C170.32 77.6602 170.289 77.3398 170.25 77.082C170.211 76.8242 170.164 76.6133 170.109 76.4492V76.4023H172.816V76.4492C172.762 76.6133 172.711 76.8242 172.664 77.082C172.625 77.3398 172.59 77.6602 172.559 78.043C172.535 78.418 172.516 78.8672 172.5 79.3906C172.484 79.9062 172.477 80.5156 172.477 81.2188V84.1719C172.477 84.875 172.484 85.4883 172.5 86.0117C172.516 86.5352 172.535 86.9883 172.559 87.3711C172.59 87.7461 172.625 88.0625 172.664 88.3203C172.711 88.5781 172.762 88.7891 172.816 88.9531V89H170.109V88.9531C170.164 88.7891 170.211 88.5781 170.25 88.3203C170.289 88.0625 170.32 87.7461 170.344 87.3711C170.375 86.9883 170.398 86.5352 170.414 86.0117C170.43 85.4883 170.438 84.875 170.438 84.1719V82.9766ZM176.332 81.2188C176.332 80.5156 176.324 79.9062 176.309 79.3906C176.293 78.8672 176.27 78.418 176.238 78.043C176.215 77.6602 176.18 77.3398 176.133 77.082C176.094 76.8242 176.047 76.6133 175.992 76.4492V76.4023H178.711V76.4492C178.656 76.6133 178.605 76.8242 178.559 77.082C178.52 77.3398 178.484 77.6602 178.453 78.043C178.43 78.418 178.41 78.8672 178.395 79.3906C178.379 79.9062 178.371 80.5156 178.371 81.2188V84.1719C178.371 84.875 178.379 85.4883 178.395 86.0117C178.41 86.5352 178.43 86.9883 178.453 87.3711C178.484 87.7461 178.52 88.0625 178.559 88.3203C178.605 88.5781 178.656 88.7891 178.711 88.9531V89H175.992V88.9531C176.047 88.7891 176.094 88.5781 176.133 88.3203C176.18 88.0625 176.215 87.7461 176.238 87.3711C176.27 86.9883 176.293 86.5352 176.309 86.0117C176.324 85.4883 176.332 84.875 176.332 84.1719V81.2188ZM193.23 89.1641H192.773L183.457 80V84.1719C183.457 84.875 183.461 85.4883 183.469 86.0117C183.477 86.5352 183.488 86.9883 183.504 87.3711C183.527 87.7461 183.555 88.0625 183.586 88.3203C183.625 88.5781 183.672 88.7891 183.727 88.9531V89H181.969V88.9531C182.023 88.7891 182.07 88.5781 182.109 88.3203C182.148 88.0625 182.18 87.7461 182.203 87.3711C182.227 86.9883 182.242 86.5352 182.25 86.0117C182.258 85.4883 182.262 84.875 182.262 84.1719V81.2188C182.262 80.5156 182.258 79.9062 182.25 79.3906C182.242 78.8672 182.227 78.418 182.203 78.043C182.18 77.6602 182.148 77.3398 182.109 77.082C182.07 76.8242 182.023 76.6133 181.969 76.4492V76.4023H182.695L192.023 85.6133V81.2188C192.023 80.5156 192.02 79.9062 192.012 79.3906C192.004 78.8672 191.988 78.418 191.965 78.043C191.949 77.6602 191.926 77.3398 191.895 77.082C191.863 76.8242 191.82 76.6133 191.766 76.4492V76.4023H193.512V76.4492C193.457 76.6133 193.41 76.8242 193.371 77.082C193.34 77.3398 193.312 77.6602 193.289 78.043C193.266 78.418 193.25 78.8672 193.242 79.3906C193.234 79.9062 193.23 80.5156 193.23 81.2188V89.1641ZM199.02 77.2344C199.012 77.875 199.004 78.4961 198.996 79.0977C198.996 79.3555 198.992 79.6211 198.984 79.8945C198.984 80.1602 198.98 80.4258 198.973 80.6914C198.973 80.957 198.973 81.2109 198.973 81.4531C198.973 81.6875 198.973 81.8984 198.973 82.0859C198.973 82.4766 198.973 82.9492 198.973 83.5039C198.98 84.0508 198.988 84.6133 198.996 85.1914C199.004 85.7695 199.016 86.3281 199.031 86.8672C199.047 87.3984 199.066 87.8438 199.09 88.2031C199.168 88.2188 199.27 88.2344 199.395 88.25C199.52 88.2578 199.648 88.2695 199.781 88.2852C199.922 88.293 200.059 88.3008 200.191 88.3086C200.324 88.3086 200.438 88.3086 200.531 88.3086C200.961 88.3086 201.395 88.2812 201.832 88.2266C202.277 88.1719 202.703 88.0703 203.109 87.9219C203.523 87.7656 203.91 87.5547 204.27 87.2891C204.629 87.0234 204.941 86.6836 205.207 86.2695C205.48 85.8477 205.691 85.3438 205.84 84.7578C205.996 84.1641 206.074 83.4648 206.074 82.6602C206.074 80.8867 205.648 79.5195 204.797 78.5586C203.953 77.5977 202.691 77.1172 201.012 77.1172C200.848 77.1172 200.672 77.1211 200.484 77.1289C200.305 77.1367 200.125 77.1484 199.945 77.1641C199.766 77.1719 199.594 77.1836 199.43 77.1992C199.273 77.2148 199.137 77.2266 199.02 77.2344ZM196.594 76.3789C196.781 76.3867 196.957 76.3906 197.121 76.3906C197.262 76.3984 197.398 76.4023 197.531 76.4023C197.664 76.4023 197.762 76.4023 197.824 76.4023C197.934 76.4023 198.129 76.3984 198.41 76.3906C198.691 76.3828 199.008 76.375 199.359 76.3672C199.719 76.3516 200.094 76.3398 200.484 76.332C200.883 76.3164 201.25 76.3086 201.586 76.3086C202.5 76.3086 203.371 76.4141 204.199 76.625C205.027 76.8359 205.754 77.1836 206.379 77.668C207.012 78.1445 207.512 78.7734 207.879 79.5547C208.246 80.3281 208.43 81.2852 208.43 82.4258C208.43 83.6523 208.219 84.6914 207.797 85.543C207.375 86.3945 206.805 87.0898 206.086 87.6289C205.367 88.1602 204.531 88.5469 203.578 88.7891C202.633 89.0234 201.633 89.1406 200.578 89.1406C200.328 89.1406 200.016 89.1328 199.641 89.1172C199.266 89.1016 198.883 89.0859 198.492 89.0703C198.102 89.0547 197.73 89.0391 197.379 89.0234C197.035 89.0078 196.773 89 196.594 89V88.9531C196.648 88.7891 196.695 88.5781 196.734 88.3203C196.781 88.0625 196.816 87.7461 196.84 87.3711C196.871 86.9883 196.895 86.5352 196.91 86.0117C196.926 85.4883 196.934 84.875 196.934 84.1719V81.2188C196.934 80.5156 196.926 79.9023 196.91 79.3789C196.895 78.8555 196.871 78.4023 196.84 78.0195C196.816 77.6367 196.781 77.3164 196.734 77.0586C196.695 76.8008 196.648 76.5898 196.594 76.4258V76.3789ZM218.566 85.0391C218.355 85.0391 218.09 85.0391 217.77 85.0391C217.457 85.0391 217.113 85.0391 216.738 85.0391C216.363 85.0391 215.977 85.0391 215.578 85.0391C215.18 85.0391 214.801 85.043 214.441 85.0508C214.082 85.0508 213.754 85.0547 213.457 85.0625C213.16 85.0625 212.93 85.0625 212.766 85.0625L212.332 85.9766C212.145 86.3516 211.984 86.6797 211.852 86.9609C211.719 87.2344 211.609 87.4766 211.523 87.6875C211.438 87.8984 211.375 88.082 211.336 88.2383C211.297 88.3867 211.277 88.5273 211.277 88.6602C211.277 88.7461 211.281 88.8125 211.289 88.8594C211.297 88.8984 211.309 88.9297 211.324 88.9531V89H209.262V88.9531C209.316 88.8984 209.402 88.7812 209.52 88.6016C209.637 88.4141 209.77 88.1875 209.918 87.9219C210.074 87.6562 210.238 87.3555 210.41 87.0195C210.59 86.6836 210.766 86.3359 210.938 85.9766L215.719 76.1094H216.598L221.285 85.9766C221.465 86.3516 221.645 86.7109 221.824 87.0547C222.012 87.3984 222.184 87.707 222.34 87.9805C222.496 88.2461 222.633 88.4688 222.75 88.6484C222.867 88.8203 222.945 88.9219 222.984 88.9531V89H219.984C220 88.9375 220.008 88.8828 220.008 88.8359C220.008 88.7812 220.008 88.7227 220.008 88.6602C220.008 88.4883 219.969 88.2812 219.891 88.0391C219.82 87.7969 219.73 87.5508 219.621 87.3008C219.52 87.043 219.41 86.7969 219.293 86.5625C219.184 86.3281 219.094 86.1328 219.023 85.9766L218.566 85.0391ZM213.223 84.125H213.938C214.266 84.125 214.613 84.125 214.98 84.125C215.355 84.1172 215.73 84.1133 216.105 84.1133C216.48 84.1133 216.844 84.1133 217.195 84.1133C217.547 84.1055 217.863 84.1016 218.145 84.1016L215.719 78.9219L213.223 84.125ZM228.258 70.6602H229.5V94.6602H228.258V70.6602ZM236.895 76.7891C236.895 76.125 236.887 75.5469 236.871 75.0547C236.855 74.5547 236.832 74.125 236.801 73.7656C236.77 73.3984 236.73 73.0938 236.684 72.8516C236.645 72.6094 236.602 72.4062 236.555 72.2422V72.1953C236.711 72.2031 236.875 72.207 237.047 72.207C237.195 72.2148 237.359 72.2188 237.539 72.2188C237.727 72.2188 237.918 72.2188 238.113 72.2188C238.395 72.2188 238.773 72.1914 239.25 72.1367C239.734 72.082 240.355 72.0547 241.113 72.0547C241.816 72.0547 242.465 72.1484 243.059 72.3359C243.652 72.5156 244.164 72.7773 244.594 73.1211C245.031 73.4648 245.371 73.8906 245.613 74.3984C245.863 74.8984 245.988 75.4688 245.988 76.1094C245.988 76.6484 245.914 77.1328 245.766 77.5625C245.617 77.9844 245.406 78.3555 245.133 78.6758C244.867 78.9883 244.543 79.2539 244.16 79.4727C243.785 79.6836 243.371 79.8516 242.918 79.9766C243.582 80.0781 244.188 80.25 244.734 80.4922C245.281 80.7266 245.75 81.0234 246.141 81.3828C246.539 81.7422 246.844 82.1641 247.055 82.6484C247.273 83.125 247.383 83.6562 247.383 84.2422C247.383 85.8906 246.84 87.1289 245.754 87.957C244.668 88.7773 243.043 89.1875 240.879 89.1875C240.645 89.1875 240.371 89.1758 240.059 89.1523C239.746 89.1367 239.426 89.1172 239.098 89.0938C238.777 89.0703 238.461 89.0469 238.148 89.0234C237.836 89.0078 237.562 89 237.328 89H236.555V88.9531C236.602 88.7891 236.645 88.5859 236.684 88.3438C236.73 88.1016 236.77 87.8008 236.801 87.4414C236.832 87.082 236.855 86.6562 236.871 86.1641C236.887 85.6641 236.895 85.082 236.895 84.418V76.7891ZM241.195 80.6914C240.664 80.6914 240.219 80.7109 239.859 80.75C239.5 80.7891 239.223 80.8281 239.027 80.8672V84.418C239.027 85.332 239.043 86.0859 239.074 86.6797C239.105 87.2734 239.148 87.7578 239.203 88.1328C239.5 88.1719 239.797 88.207 240.094 88.2383C240.391 88.2695 240.629 88.2852 240.809 88.2852C242.27 88.2852 243.336 87.9609 244.008 87.3125C244.688 86.6562 245.027 85.6523 245.027 84.3008C245.027 83.7695 244.945 83.2852 244.781 82.8477C244.625 82.4023 244.387 82.0195 244.066 81.6992C243.754 81.3789 243.355 81.1328 242.871 80.9609C242.395 80.7812 241.836 80.6914 241.195 80.6914ZM239.027 79.8125C239.246 79.8359 239.441 79.8516 239.613 79.8594C239.785 79.8594 239.969 79.8594 240.164 79.8594C240.695 79.8594 241.18 79.7852 241.617 79.6367C242.055 79.4805 242.426 79.25 242.73 78.9453C243.043 78.6406 243.285 78.2617 243.457 77.8086C243.629 77.3477 243.715 76.8125 243.715 76.2031C243.715 75.6953 243.652 75.2344 243.527 74.8203C243.402 74.4062 243.215 74.0547 242.965 73.7656C242.723 73.4688 242.422 73.2422 242.062 73.0859C241.703 72.9297 241.293 72.8516 240.832 72.8516C240.535 72.8516 240.273 72.8633 240.047 72.8867C239.828 72.9102 239.641 72.9375 239.484 72.9688C239.305 73 239.152 73.0391 239.027 73.0859V79.8125ZM257.426 85.0391C257.215 85.0391 256.949 85.0391 256.629 85.0391C256.316 85.0391 255.973 85.0391 255.598 85.0391C255.223 85.0391 254.836 85.0391 254.438 85.0391C254.039 85.0391 253.66 85.043 253.301 85.0508C252.941 85.0508 252.613 85.0547 252.316 85.0625C252.02 85.0625 251.789 85.0625 251.625 85.0625L251.191 85.9766C251.004 86.3516 250.844 86.6797 250.711 86.9609C250.578 87.2344 250.469 87.4766 250.383 87.6875C250.297 87.8984 250.234 88.082 250.195 88.2383C250.156 88.3867 250.137 88.5273 250.137 88.6602C250.137 88.7461 250.141 88.8125 250.148 88.8594C250.156 88.8984 250.168 88.9297 250.184 88.9531V89H248.121V88.9531C248.176 88.8984 248.262 88.7812 248.379 88.6016C248.496 88.4141 248.629 88.1875 248.777 87.9219C248.934 87.6562 249.098 87.3555 249.27 87.0195C249.449 86.6836 249.625 86.3359 249.797 85.9766L254.578 76.1094H255.457L260.145 85.9766C260.324 86.3516 260.504 86.7109 260.684 87.0547C260.871 87.3984 261.043 87.707 261.199 87.9805C261.355 88.2461 261.492 88.4688 261.609 88.6484C261.727 88.8203 261.805 88.9219 261.844 88.9531V89H258.844C258.859 88.9375 258.867 88.8828 258.867 88.8359C258.867 88.7812 258.867 88.7227 258.867 88.6602C258.867 88.4883 258.828 88.2812 258.75 88.0391C258.68 87.7969 258.59 87.5508 258.48 87.3008C258.379 87.043 258.27 86.7969 258.152 86.5625C258.043 86.3281 257.953 86.1328 257.883 85.9766L257.426 85.0391ZM252.082 84.125H252.797C253.125 84.125 253.473 84.125 253.84 84.125C254.215 84.1172 254.59 84.1133 254.965 84.1133C255.34 84.1133 255.703 84.1133 256.055 84.1133C256.406 84.1055 256.723 84.1016 257.004 84.1016L254.578 78.9219L252.082 84.125ZM265.652 82.8828C265.809 82.9062 265.965 82.9258 266.121 82.9414C266.285 82.9492 266.441 82.9531 266.59 82.9531C267.566 82.9531 268.305 82.6914 268.805 82.168C269.312 81.6445 269.566 80.8594 269.566 79.8125C269.566 78.9531 269.363 78.2734 268.957 77.7734C268.559 77.2734 267.969 77.0234 267.188 77.0234C266.938 77.0234 266.715 77.0352 266.52 77.0586C266.332 77.0742 266.172 77.0938 266.039 77.1172C265.891 77.1484 265.762 77.1797 265.652 77.2109V82.8828ZM267.445 83.6445C267.289 83.668 267.133 83.6836 266.977 83.6914C266.828 83.6914 266.676 83.6914 266.52 83.6914C266.395 83.6914 266.258 83.6875 266.109 83.6797C265.961 83.6719 265.809 83.6602 265.652 83.6445V84.2188C265.652 84.9141 265.66 85.5234 265.676 86.0469C265.691 86.5625 265.711 87.0078 265.734 87.3828C265.766 87.7578 265.801 88.0742 265.84 88.332C265.879 88.582 265.926 88.7891 265.98 88.9531V89H263.273V88.9531C263.328 88.7891 263.375 88.5781 263.414 88.3203C263.461 88.0625 263.496 87.7461 263.52 87.3711C263.551 86.9883 263.574 86.5352 263.59 86.0117C263.605 85.4883 263.613 84.875 263.613 84.1719V81.2188C263.613 80.5156 263.605 79.9062 263.59 79.3906C263.574 78.8672 263.551 78.418 263.52 78.043C263.496 77.6602 263.461 77.3398 263.414 77.082C263.375 76.8242 263.328 76.6133 263.273 76.4492V76.4023C263.398 76.4102 263.531 76.418 263.672 76.4258C263.789 76.4336 263.918 76.4414 264.059 76.4492C264.207 76.4492 264.355 76.4492 264.504 76.4492C264.754 76.4492 265.125 76.4258 265.617 76.3789C266.109 76.332 266.688 76.3086 267.352 76.3086C268.023 76.3086 268.633 76.3906 269.18 76.5547C269.734 76.7188 270.207 76.9531 270.598 77.2578C270.996 77.5625 271.301 77.9336 271.512 78.3711C271.73 78.8086 271.84 79.2969 271.84 79.8359C271.84 80.2578 271.781 80.6445 271.664 80.9961C271.547 81.3398 271.383 81.6523 271.172 81.9336C270.961 82.207 270.711 82.4492 270.422 82.6602C270.133 82.8711 269.812 83.0547 269.461 83.2109L271.91 86.668C272.121 86.9492 272.332 87.2188 272.543 87.4766C272.762 87.7344 272.969 87.9648 273.164 88.168C273.359 88.3711 273.543 88.543 273.715 88.6836C273.887 88.8164 274.031 88.9062 274.148 88.9531V89H271.078C271.078 88.9297 271.027 88.8086 270.926 88.6367C270.832 88.457 270.719 88.2734 270.586 88.0859C270.461 87.8906 270.332 87.7031 270.199 87.5234C270.074 87.3438 269.98 87.2109 269.918 87.125L267.445 83.6445ZM286.512 89.1641H286.055L276.738 80V84.1719C276.738 84.875 276.742 85.4883 276.75 86.0117C276.758 86.5352 276.77 86.9883 276.785 87.3711C276.809 87.7461 276.836 88.0625 276.867 88.3203C276.906 88.5781 276.953 88.7891 277.008 88.9531V89H275.25V88.9531C275.305 88.7891 275.352 88.5781 275.391 88.3203C275.43 88.0625 275.461 87.7461 275.484 87.3711C275.508 86.9883 275.523 86.5352 275.531 86.0117C275.539 85.4883 275.543 84.875 275.543 84.1719V81.2188C275.543 80.5156 275.539 79.9062 275.531 79.3906C275.523 78.8672 275.508 78.418 275.484 78.043C275.461 77.6602 275.43 77.3398 275.391 77.082C275.352 76.8242 275.305 76.6133 275.25 76.4492V76.4023H275.977L285.305 85.6133V81.2188C285.305 80.5156 285.301 79.9062 285.293 79.3906C285.285 78.8672 285.27 78.418 285.246 78.043C285.23 77.6602 285.207 77.3398 285.176 77.082C285.145 76.8242 285.102 76.6133 285.047 76.4492V76.4023H286.793V76.4492C286.738 76.6133 286.691 76.8242 286.652 77.082C286.621 77.3398 286.594 77.6602 286.57 78.043C286.547 78.418 286.531 78.8672 286.523 79.3906C286.516 79.9062 286.512 80.5156 286.512 81.2188V89.1641ZM297.527 85.0391C297.316 85.0391 297.051 85.0391 296.73 85.0391C296.418 85.0391 296.074 85.0391 295.699 85.0391C295.324 85.0391 294.938 85.0391 294.539 85.0391C294.141 85.0391 293.762 85.043 293.402 85.0508C293.043 85.0508 292.715 85.0547 292.418 85.0625C292.121 85.0625 291.891 85.0625 291.727 85.0625L291.293 85.9766C291.105 86.3516 290.945 86.6797 290.812 86.9609C290.68 87.2344 290.57 87.4766 290.484 87.6875C290.398 87.8984 290.336 88.082 290.297 88.2383C290.258 88.3867 290.238 88.5273 290.238 88.6602C290.238 88.7461 290.242 88.8125 290.25 88.8594C290.258 88.8984 290.27 88.9297 290.285 88.9531V89H288.223V88.9531C288.277 88.8984 288.363 88.7812 288.48 88.6016C288.598 88.4141 288.73 88.1875 288.879 87.9219C289.035 87.6562 289.199 87.3555 289.371 87.0195C289.551 86.6836 289.727 86.3359 289.898 85.9766L294.68 76.1094H295.559L300.246 85.9766C300.426 86.3516 300.605 86.7109 300.785 87.0547C300.973 87.3984 301.145 87.707 301.301 87.9805C301.457 88.2461 301.594 88.4688 301.711 88.6484C301.828 88.8203 301.906 88.9219 301.945 88.9531V89H298.945C298.961 88.9375 298.969 88.8828 298.969 88.8359C298.969 88.7812 298.969 88.7227 298.969 88.6602C298.969 88.4883 298.93 88.2812 298.852 88.0391C298.781 87.7969 298.691 87.5508 298.582 87.3008C298.48 87.043 298.371 86.7969 298.254 86.5625C298.145 86.3281 298.055 86.1328 297.984 85.9766L297.527 85.0391ZM292.184 84.125H292.898C293.227 84.125 293.574 84.125 293.941 84.125C294.316 84.1172 294.691 84.1133 295.066 84.1133C295.441 84.1133 295.805 84.1133 296.156 84.1133C296.508 84.1055 296.824 84.1016 297.105 84.1016L294.68 78.9219L292.184 84.125ZM305.754 88.0859C306.48 88.0859 307.148 88.0586 307.758 88.0039C308.375 87.9414 308.914 87.875 309.375 87.8047C309.914 87.7188 310.402 87.6211 310.84 87.5117L310.57 89.0703C310.461 89.0625 310.273 89.0508 310.008 89.0352C309.75 89.0273 309.477 89.0195 309.188 89.0117C308.898 89.0117 308.629 89.0078 308.379 89C308.129 89 307.957 89 307.863 89H303.375V88.9531C303.43 88.7891 303.477 88.5781 303.516 88.3203C303.562 88.0625 303.598 87.7461 303.621 87.3711C303.652 86.9883 303.676 86.5352 303.691 86.0117C303.707 85.4883 303.715 84.875 303.715 84.1719V81.2188C303.715 80.5156 303.707 79.9062 303.691 79.3906C303.676 78.8672 303.652 78.418 303.621 78.043C303.598 77.6602 303.562 77.3398 303.516 77.082C303.477 76.8242 303.43 76.6133 303.375 76.4492V76.4023H306.082V76.4492C306.027 76.6133 305.98 76.8242 305.941 77.082C305.902 77.3398 305.867 77.6602 305.836 78.043C305.812 78.418 305.793 78.8672 305.777 79.3906C305.762 79.9062 305.754 80.5156 305.754 81.2188V88.0859ZM320.52 85.0391C320.309 85.0391 320.043 85.0391 319.723 85.0391C319.41 85.0391 319.066 85.0391 318.691 85.0391C318.316 85.0391 317.93 85.0391 317.531 85.0391C317.133 85.0391 316.754 85.043 316.395 85.0508C316.035 85.0508 315.707 85.0547 315.41 85.0625C315.113 85.0625 314.883 85.0625 314.719 85.0625L314.285 85.9766C314.098 86.3516 313.938 86.6797 313.805 86.9609C313.672 87.2344 313.562 87.4766 313.477 87.6875C313.391 87.8984 313.328 88.082 313.289 88.2383C313.25 88.3867 313.23 88.5273 313.23 88.6602C313.23 88.7461 313.234 88.8125 313.242 88.8594C313.25 88.8984 313.262 88.9297 313.277 88.9531V89H311.215V88.9531C311.27 88.8984 311.355 88.7812 311.473 88.6016C311.59 88.4141 311.723 88.1875 311.871 87.9219C312.027 87.6562 312.191 87.3555 312.363 87.0195C312.543 86.6836 312.719 86.3359 312.891 85.9766L317.672 76.1094H318.551L323.238 85.9766C323.418 86.3516 323.598 86.7109 323.777 87.0547C323.965 87.3984 324.137 87.707 324.293 87.9805C324.449 88.2461 324.586 88.4688 324.703 88.6484C324.82 88.8203 324.898 88.9219 324.938 88.9531V89H321.938C321.953 88.9375 321.961 88.8828 321.961 88.8359C321.961 88.7812 321.961 88.7227 321.961 88.6602C321.961 88.4883 321.922 88.2812 321.844 88.0391C321.773 87.7969 321.684 87.5508 321.574 87.3008C321.473 87.043 321.363 86.7969 321.246 86.5625C321.137 86.3281 321.047 86.1328 320.977 85.9766L320.52 85.0391ZM315.176 84.125H315.891C316.219 84.125 316.566 84.125 316.934 84.125C317.309 84.1172 317.684 84.1133 318.059 84.1133C318.434 84.1133 318.797 84.1133 319.148 84.1133C319.5 84.1055 319.816 84.1016 320.098 84.1016L317.672 78.9219L315.176 84.125ZM330.211 70.6602H331.453V94.6602H330.211V70.6602ZM340.98 81.5586C341.746 81.6992 342.445 81.7148 343.078 81.6055C343.719 81.4883 344.266 81.2461 344.719 80.8789C345.18 80.5039 345.535 80 345.785 79.3672C346.043 78.7344 346.172 77.9609 346.172 77.0469C346.172 76.4141 346.105 75.8398 345.973 75.3242C345.84 74.8008 345.641 74.3594 345.375 74C345.117 73.6328 344.789 73.3516 344.391 73.1562C343.992 72.9531 343.527 72.8516 342.996 72.8516C342.66 72.8516 342.367 72.8672 342.117 72.8984C341.867 72.9219 341.656 72.9492 341.484 72.9805C341.281 73.0195 341.113 73.0625 340.98 73.1094V81.5586ZM338.508 72.1953C338.664 72.2109 338.828 72.2266 339 72.2422C339.148 72.2578 339.312 72.2695 339.492 72.2773C339.68 72.2773 339.871 72.2773 340.066 72.2773C340.371 72.2773 340.781 72.2422 341.297 72.1719C341.82 72.0938 342.484 72.0547 343.289 72.0547C344.039 72.0547 344.73 72.1641 345.363 72.3828C346.004 72.6016 346.559 72.9219 347.027 73.3438C347.496 73.7656 347.859 74.2812 348.117 74.8906C348.383 75.4922 348.516 76.1797 348.516 76.9531C348.516 77.9922 348.309 78.8906 347.895 79.6484C347.48 80.4062 346.926 81.0195 346.23 81.4883C345.535 81.957 344.734 82.2773 343.828 82.4492C342.922 82.6133 341.973 82.6211 340.98 82.4727V84.418C340.98 85.082 340.988 85.6641 341.004 86.1641C341.027 86.6562 341.051 87.082 341.074 87.4414C341.105 87.8008 341.141 88.1016 341.18 88.3438C341.227 88.5859 341.273 88.7891 341.32 88.9531V89H338.508V88.9531C338.555 88.7891 338.598 88.5859 338.637 88.3438C338.684 88.1016 338.723 87.8008 338.754 87.4414C338.785 87.082 338.809 86.6562 338.824 86.1641C338.84 85.6641 338.848 85.082 338.848 84.418V76.7891C338.848 76.125 338.84 75.5469 338.824 75.0547C338.809 74.5547 338.785 74.125 338.754 73.7656C338.723 73.3984 338.684 73.0938 338.637 72.8516C338.598 72.6094 338.555 72.4062 338.508 72.2422V72.1953ZM360.316 81.1719C360.316 80.4766 360.312 79.8711 360.305 79.3555C360.297 78.8398 360.281 78.3945 360.258 78.0195C360.234 77.6445 360.207 77.332 360.176 77.082C360.145 76.8242 360.105 76.6133 360.059 76.4492V76.4023H361.781V76.4492C361.734 76.6133 361.695 76.8242 361.664 77.082C361.633 77.3398 361.605 77.6602 361.582 78.043C361.559 78.418 361.543 78.8672 361.535 79.3906C361.527 79.9062 361.523 80.5156 361.523 81.2188V84.582C361.523 85.4258 361.391 86.1445 361.125 86.7383C360.867 87.332 360.508 87.8203 360.047 88.2031C359.586 88.5781 359.035 88.8516 358.395 89.0234C357.762 89.2031 357.066 89.293 356.309 89.293C355.543 89.293 354.832 89.207 354.176 89.0352C353.52 88.8711 352.949 88.6055 352.465 88.2383C351.988 87.8711 351.609 87.3945 351.328 86.8086C351.055 86.2227 350.918 85.5117 350.918 84.6758V81.2188C350.918 80.5156 350.91 79.9062 350.895 79.3906C350.879 78.8672 350.855 78.418 350.824 78.043C350.793 77.6602 350.758 77.3398 350.719 77.082C350.68 76.8242 350.633 76.6133 350.578 76.4492V76.4023H353.285V76.4492C353.23 76.6133 353.184 76.8242 353.145 77.082C353.105 77.332 353.07 77.6445 353.039 78.0195C353.016 78.3945 352.996 78.8398 352.98 79.3555C352.965 79.8711 352.957 80.4766 352.957 81.1719V84.6758C352.957 85.3711 353.062 85.9453 353.273 86.3984C353.484 86.8438 353.762 87.1992 354.105 87.4648C354.449 87.7305 354.84 87.918 355.277 88.0273C355.715 88.1289 356.164 88.1797 356.625 88.1797C357.094 88.1797 357.547 88.1289 357.984 88.0273C358.43 87.918 358.824 87.7305 359.168 87.4648C359.52 87.1992 359.797 86.8438 360 86.3984C360.211 85.9453 360.316 85.3711 360.316 84.6758V81.1719ZM376.09 89.1641H375.633L366.316 80V84.1719C366.316 84.875 366.32 85.4883 366.328 86.0117C366.336 86.5352 366.348 86.9883 366.363 87.3711C366.387 87.7461 366.414 88.0625 366.445 88.3203C366.484 88.5781 366.531 88.7891 366.586 88.9531V89H364.828V88.9531C364.883 88.7891 364.93 88.5781 364.969 88.3203C365.008 88.0625 365.039 87.7461 365.062 87.3711C365.086 86.9883 365.102 86.5352 365.109 86.0117C365.117 85.4883 365.121 84.875 365.121 84.1719V81.2188C365.121 80.5156 365.117 79.9062 365.109 79.3906C365.102 78.8672 365.086 78.418 365.062 78.043C365.039 77.6602 365.008 77.3398 364.969 77.082C364.93 76.8242 364.883 76.6133 364.828 76.4492V76.4023H365.555L374.883 85.6133V81.2188C374.883 80.5156 374.879 79.9062 374.871 79.3906C374.863 78.8672 374.848 78.418 374.824 78.043C374.809 77.6602 374.785 77.3398 374.754 77.082C374.723 76.8242 374.68 76.6133 374.625 76.4492V76.4023H376.371V76.4492C376.316 76.6133 376.27 76.8242 376.23 77.082C376.199 77.3398 376.172 77.6602 376.148 78.043C376.125 78.418 376.109 78.8672 376.102 79.3906C376.094 79.9062 376.09 80.5156 376.09 81.2188V89.1641ZM379.453 76.4023C380.219 76.4023 381.004 76.4023 381.809 76.4023C382.613 76.3945 383.359 76.3867 384.047 76.3789C384.734 76.3633 385.324 76.3477 385.816 76.332C386.316 76.3164 386.645 76.293 386.801 76.2617L386.344 77.5273C386.133 77.4727 385.895 77.4219 385.629 77.375C385.395 77.3359 385.109 77.3008 384.773 77.2695C384.445 77.2305 384.062 77.2109 383.625 77.2109C383.469 77.2109 383.289 77.2188 383.086 77.2344C382.883 77.2422 382.688 77.2539 382.5 77.2695C382.281 77.2852 382.059 77.3008 381.832 77.3164V81.9453C382.465 81.9375 383.035 81.9219 383.543 81.8984C384.051 81.875 384.484 81.8438 384.844 81.8047C385.266 81.7734 385.637 81.7305 385.957 81.6758L385.676 83.0703C385.246 83.0156 384.812 82.9688 384.375 82.9297C384 82.8906 383.586 82.8594 383.133 82.8359C382.68 82.8047 382.246 82.7891 381.832 82.7891V88.1094C382.559 88.1094 383.227 88.082 383.836 88.0273C384.445 87.9648 384.977 87.8984 385.43 87.8281C385.961 87.7422 386.441 87.6445 386.871 87.5352L386.602 89.0703C386.484 89.0625 386.293 89.0508 386.027 89.0352C385.77 89.0273 385.496 89.0195 385.207 89.0117C384.926 89.0117 384.66 89.0078 384.41 89C384.16 89 383.988 89 383.895 89H379.453V88.9531C379.508 88.7891 379.555 88.5781 379.594 88.3203C379.641 88.0625 379.676 87.7461 379.699 87.3711C379.73 86.9883 379.754 86.5352 379.77 86.0117C379.785 85.4883 379.793 84.875 379.793 84.1719V81.2188C379.793 80.5156 379.785 79.9062 379.77 79.3906C379.754 78.8672 379.73 78.418 379.699 78.043C379.676 77.6602 379.641 77.3398 379.594 77.082C379.555 76.8242 379.508 76.6133 379.453 76.4492V76.4023Z" fill="#393939"/>
<defs>
<radialGradient id="paint0_radial_8_15" cx="0" cy="0" r="1" gradientUnits="userSpaceOnUse" gradientTransform="translate(50.5 50.7617) rotate(-90) scale(50.7617)">
<stop offset="0.345" stop-color="#305B77"/>
<stop offset="1" stop-color="#1D4C6A"/>
</radialGradient>
</defs>
</svg>
